<?xml version="1.0" standalone="no"?>
<!DOCTYPE svg PUBLIC "-//W3C//DTD SVG 1.1//EN" "http://www.w3.org/Graphics/SVG/1.1/DTD/svg11.dtd" >
<!--
2013-9-30: Created.
-->
<svg>
<metadata>
Created by iconfont
</metadata>
<defs>

<font id="iconfont" horiz-adv-x="1024" >
  <font-face
    font-family="iconfont"
    font-weight="500"
    font-stretch="normal"
    units-per-em="1024"
    ascent="896"
    descent="-128"
  />
    <missing-glyph />
    
    <glyph glyph-name="x" unicode="x" horiz-adv-x="1001"
d="M281 543q-27 -1 -53 -1h-83q-18 0 -36.5 -6t-32.5 -18.5t-23 -32t-9 -45.5v-76h912v41q0 16 -0.5 30t-0.5 18q0 13 -5 29t-17 29.5t-31.5 22.5t-49.5 9h-133v-97h-438v97zM955 310v-52q0 -23 0.5 -52t0.5 -58t-10.5 -47.5t-26 -30t-33 -16t-31.5 -4.5q-14 -1 -29.5 -0.5
t-29.5 0.5h-32l-45 128h-439l-44 -128h-29h-34q-20 0 -45 1q-25 0 -41 9.5t-25.5 23t-13.5 29.5t-4 30v167h911zM163 247q-12 0 -21 -8.5t-9 -21.5t9 -21.5t21 -8.5q13 0 22 8.5t9 21.5t-9 21.5t-22 8.5zM316 123q-8 -26 -14 -48q-5 -19 -10.5 -37t-7.5 -25t-3 -15t1 -14.5
t9.5 -10.5t21.5 -4h37h67h81h80h64h36q23 0 34 12t2 38q-5 13 -9.5 30.5t-9.5 34.5q-5 19 -11 39h-368zM336 498v228q0 11 2.5 23t10 21.5t20.5 15.5t34 6h188q31 0 51.5 -14.5t20.5 -52.5v-227h-327z" />
    

    
    <glyph glyph-name="xiajiantou" unicode="&#59033;" d="M187.5556 424.7847 812.5556 424.7847 500.0556 112.2847Z"  horiz-adv-x="1000" />

    
    <glyph glyph-name="dianhua" unicode="&#59044;" d="M515.1568 753.3586c-241.3782 0-437.0546-195.6673-437.0546-437.0367 0-241.3684 195.6764-437.0367 437.0546-437.0367s437.0546 195.6683 437.0546 437.0367C952.2114 557.6913 756.5351 753.3586 515.1568 753.3586zM515.1568-56.2585c-205.7789 0-372.5957 166.8099-372.5957 372.5804s166.8167 372.5804 372.5957 372.5804 372.5957-166.8099 372.5957-372.5804S720.9358-56.2585 515.1568-56.2585zM651.9377 88.8122l21.7701 11.9939c-17.218 21.0028-32.955 42.6141-47.5177 64.7191-14.4478 21.9231-27.7743 44.4369-40.2514 67.3663l-31.9387-17.5901c-42.1422 59.3717-78.1112 123.2444-106.6251 192.5075l32.3564 17.8239c-12.493 22.4618-24.1966 45.3972-34.8448 68.9532-11.065 24.4874-21.0626 49.7313-29.7101 75.9275l-21.4893-11.835c-36.4828-20.8339-52.0349-46.9472-46.6693-78.3549l0.3178-1.3301-0.1549-0.0909c1.7319-7.6228 3.5737-15.1857 5.5175-22.7026l0.0789-0.3328 0.008-0.015c33.9564-130.9282 100.2212-244.0615 189.5862-344.4675 0.2908-0.7545 0.5606-1.497 0.8045-2.2245 5.8653-5.9789 11.7345-11.9619 17.5988-17.9358C584.4487 69.908 614.8393 69.1055 651.9377 88.8122L651.9377 88.8122zM692.1521 110.9702c-17.7387 21.3945-33.8544 43.4146-48.681 65.9213-14.2669 21.6593-27.3176 43.6644-39.4619 65.9593l24.5384 13.5148c12.4701-3.1249 71.5874-71.9182 86.7248-132.6601L692.1521 110.9702 692.1521 110.9702zM497.8069 435.5931c-12.1273 21.8322-23.566 44.285-34.0783 67.5322-11.2688 24.9251-21.4024 50.7056-30.0958 77.5524l20.7518 11.4342c28.6697-22.7476 68.7682-122.8437 64.5599-144.8728L497.8069 435.5931z"  horiz-adv-x="1000" />

    
    <glyph glyph-name="zuojiantou" unicode="&#58892;" d="M393.3125 656.6875l-312.5-312.5c-24.4063-24.4063-24.4063-63.9688 0-88.375l312.5-312.5c24.4063-24.4063 63.9688-24.4063 88.375 0 24.4063 24.4063 24.4063 63.9688 0 88.375l-205.8125 205.8125h599.125c34.5313 0 62.5 27.9688 62.5 62.5 0 34.5313-27.9688 62.5-62.5 62.5h-599.125l205.8125 205.8125c12.1875 12.2188 18.3125 28.1875 18.3125 44.1875s-6.0938 32-18.3125 44.1875c-24.4063 24.4063-63.9688 24.4063-88.375 0z"  horiz-adv-x="1000" />

    
    <glyph glyph-name="dingwei" unicode="&#58882;" d="M816.8428 479.1027c0 157.1369-129.324 284.5409-288.9861 284.5409-159.5924 0-288.9851-127.404-288.9851-284.5409 0-51.9004 14.3647-100.3704 38.9734-142.2643h-0.310272l245.7211-488.8525c0.8407-1.6742 2.5733-2.8211 4.5742-2.8211 1.9999 0 3.7335 1.1459 4.5742 2.8201L778.2502 336.8384h-0.35328C802.5907 378.7333 816.8428 427.2033 816.8428 479.1027M527.8843 336.8671c-79.7809 0-144.4915 63.7092-144.4915 142.2776 0 78.5254 64.7107 142.2633 144.4915 142.2633 79.8669 0 144.4925-63.7379 144.4925-142.2633C672.3779 400.5763 607.7512 336.8671 527.8843 336.8671"  horiz-adv-x="1024" />

    
    <glyph glyph-name="bianji" unicode="&#58898;" d="M335.421792 105.742714c7.147063-7.145747 18.724201-7.145747 25.873311 0l455.597656 547.042097c7.14911 7.14677 7.14911 18.741853 0 25.889647-7.147063 7.128351-18.726247 7.128351-25.871264 0L335.421792 131.614965C328.273706 124.468195 328.273706 112.889485 335.421792 105.742714zM804.867395 300.710175c-10.097376 0-18.298488-8.184403-18.298488-18.297738L786.568908-10.321698c0-20.189831-16.38585-36.592406-36.592882-36.592406L201.071533-46.914104c-20.208055 0-36.592882 16.401552-36.592882 36.592406L164.478651 538.559281c0 20.225647 16.384827 36.591383 36.592882 36.591383l256.15427 0c10.096353 0 18.297465 8.200776 18.297465 18.295692 0 10.113335-8.201112 18.295692-18.297465 18.295692l-256.15427 0c-40.418158 0-73.186788-32.768311-73.186788-73.183789L127.884745-10.321698c0-40.416502 32.76863-73.186859 73.186788-73.186859l548.904492 0c40.416111 0 73.187811 32.767288 73.187811 73.186859L823.163837 282.412436C823.163837 292.526795 814.963748 300.710175 804.867395 300.710175z"  horiz-adv-x="1024" />

    
    <glyph glyph-name="shangjiantou" unicode="&#59034;" d="M663.88 499.514c12.608 12.607 12.608 33.009 0 45.618L512 697.01 360.122 545.132c-12.609-12.609-12.609-33.009 0-45.617 12.608-12.608 33.009-12.608 45.616 0l73.98 73.979 0-533.223c0-17.811 14.424-32.258 32.259-32.258 17.836 0 32.259 14.447 32.259 32.258L544.236 573.493l73.978-73.979c12.609-12.608 33.01-12.608 45.618 0L663.88 499.514z"  horiz-adv-x="1024" />

    
    <glyph glyph-name="xiajiantou1" unicode="&#58904;" d="M663.831 205.51c-12.608 12.608-33.009 12.608-45.618 0l-73.978-73.979L544.235 664.751c0 17.812-14.423 32.259-32.259 32.259-17.835 0-32.259-14.447-32.259-32.259l0-533.222-73.98 73.979c-12.607 12.608-33.008 12.608-45.616 0-12.609-12.608-12.609-33.008 0-45.617L512 8.014l151.88 151.878c12.608 12.609 12.608 33.011 0 45.618L663.831 205.51z"  horiz-adv-x="1024" />

    
    <glyph glyph-name="phone" unicode="&#58881;" d="M755.609-132.928h-487.214c-28.856 0-52.204 20.154-52.204 44.996v780.004c0 24.841 23.348 44.996 52.204 44.996h487.214c28.852 0 52.201-20.154 52.201-44.996v-780.004c-0.001-24.842-23.349-44.996-52.201-44.996zM511.999-87.932c19.203 0 34.803 13.457 34.803 30.008 0 16.55-15.6 30.007-34.803 30.007-19.2 0-34.799-13.457-34.799-30.007-0.001-16.551 15.599-30.008 34.799-30.008zM755.609 647.076h-487.215v-629.996h487.214l-0 629.996z"  horiz-adv-x="1024" />

    
    <glyph glyph-name="star" unicode="&#59027;" d="M514.859 800c-8.918 0-26.797-7.148-50.095-53.127-56.026-99.909-144.524-262.969-144.524-262.969s-161.805-31.385-266.177-51.096c-51.204-8.417-67.931-53.973-41.945-86.035 73.435-88.277 203.366-234.037 203.366-234.037s-21.207-160.057-33.155-269.313c-3.883-41.96 18.263-66.028 49.156-66.028 10.070 0 21.079 2.58 32.429 7.91 87.602 43.398 220.861 109.764 251.029 124.738 29.656-15.143 161.592-82.566 248.213-126.091 11.222-5.372 22.146-7.952 32.088-7.952 30.552 0 52.442 24.025 48.559 66.070-11.777 109.426-32.771 269.736-32.771 269.736s128.437 145.887 201.019 234.29c25.687 32.147 9.174 77.744-41.433 86.204-103.177 19.753-263.147 51.181-263.147 51.181s-87.474 163.272-142.86 263.307c-19.586 36.926-34.563 48.77-44.036 52.027-0.896 0.465-2.816 1.184-5.718 1.184v0z"  horiz-adv-x="1024" />

    
    <glyph glyph-name="icon28" unicode="&#58993;" d="M512 523.38365c61.673641 0 111.676475 49.997718 111.676475 111.665219 0 61.684898-50.003857 111.682615-111.676475 111.682615-61.678758 0-111.676475-49.997718-111.676475-111.682615C400.323525 573.381367 450.321242 523.38365 512 523.38365zM512 411.703081c-61.678758 0-111.676475-49.997718-111.676475-111.681592 0-61.667501 49.997718-111.676475 111.676475-111.676475 61.673641 0 111.676475 50.008974 111.676475 111.676475C623.677499 361.705364 573.673641 411.703081 512 411.703081zM512 76.666492c-61.678758 0-111.676475-49.997718-111.676475-111.676475 0-61.678758 49.997718-111.676475 111.676475-111.676475 61.673641 0 111.676475 49.997718 111.676475 111.676475C623.677499 26.668775 573.673641 76.666492 512 76.666492z"  horiz-adv-x="1024" />

    
    <glyph glyph-name="weizhi" unicode="&#59095;" d="M796.749788 404.911398c0-84.791152-284.751323-479.440443-284.751323-479.440443s-284.751323 397.09397-284.751323 479.440443c0 157.266813 127.476323 284.751323 284.751323 284.751323C669.260162 689.662721 796.749788 562.178211 796.749788 404.911398zM167.300842 404.911398c0-98.036827 320.549643-554.522466 320.549643-554.522466l48.298006 0c0 0 320.54862 460.08563 320.54862 554.522466 0 190.372815-154.317645 344.698646-344.698646 344.698646C321.61951 749.610044 167.300842 595.284213 167.300842 404.911398zM422.078503 404.911398c0 49.659003 40.263006 89.922009 89.920986 89.922009 49.659003 0 89.922009-40.263006 89.922009-89.922009s-40.263006-89.928149-89.922009-89.928149C462.341508 314.983249 422.078503 355.253418 422.078503 404.911398zM362.131179 404.911398c0-82.772168 67.090001-149.876496 149.868309-149.876496 82.765005 0 149.869333 67.104327 149.869333 149.876496s-67.104327 149.869333-149.869333 149.869333C429.220157 554.780731 362.131179 487.683567 362.131179 404.911398z"  horiz-adv-x="1024" />

    
    <glyph glyph-name="xiala" unicode="&#58925;" d="M783.52 441.248 512 169.728 240.48 441.248 195.232 396 512 79.232 828.768 396Z"  horiz-adv-x="1024" />

    
    <glyph glyph-name="duihao" unicode="&#58969;" d="M127.232 315.808l224.512-178.88 559.04 515.008c0 0 37.504 34.24 70.272 7.488 9.728-8 20.992-30.784-4.352-66.496l-583.68-683.712c0 0-44.736-61.248-97.856 0.64l-251.904 340.096c0 0-29.888 46.08 7.488 73.664C63.424 332.832 92.096 347.296 127.232 315.808z"  horiz-adv-x="1024" />

    
    <glyph glyph-name="daifukuan" unicode="&#58880;" d="M800.362059 256.874671c-10.467399 0-18.940374-8.469905-19.016099-18.939351l0-0.038886c0 0 0-0.038886 0-0.079818 0 0 0 0 0-0.038886l0-96.378048c0-21.017686-17.019629-38.038338-38.034245-38.038338L379.591853 103.361345c-0.01842 0-0.01842 0-0.036839 0L212.86969 103.361345c-20.99722 0-38.034245 17.020652-38.034245 38.038338L174.835446 631.689219c0 21.016663 17.037025 38.033221 38.034245 38.033221l530.441001 0c21.014616 0 38.036291-17.016559 38.036291-38.033221l0-102.026698c0-0.038886 0-0.076748 0-0.076748 0-10.510378 8.505721-19.019169 19.016099-19.019169s19.017122 8.509814 19.017122 19.019169c0 0 0 0.037862 0 0.076748l0 105.830327c0 39.916105-32.349779 72.26486-72.26486 72.26486L209.065038 707.757708c-39.915082 0-72.26486-32.348756-72.26486-72.26486l0-497.896794c0-39.917128 32.348756-72.266907 72.26486-72.266907l538.050306 0c39.915082 0 72.26486 32.349779 72.26486 72.266907l0 100.340289C819.340295 248.404766 810.830481 256.874671 800.362059 256.874671zM814.163389 483.630115l-277.060153 0c-37.448914 0-67.855434-28.54615-71.550593-65.010643-0.420579-0.666172-0.724501-1.607614-0.733711-3.294023l0-60.188824c0-39.915082 32.346709-72.26486 72.285327-72.26486l277.060153 0c39.916105 0 72.26793 32.349779 72.26793 72.26486l0 50.699706 0 0.038886 0 5.487991C886.43132 451.280336 854.079494 483.630115 814.163389 483.630115zM848.394005 358.937185c0-21.014616-17.055444-38.030152-38.032198-38.030152L567.098387 320.907033c-0.038886 0-0.038886 0-0.038886 0l-26.15366 0c-21.024849 0-38.046524 17.015535-38.046524 38.030152l0 48.623417c0 20.979824 17.021675 38.035268 38.046524 38.035268l269.455965 0c20.977777 0 38.032198-17.056468 38.032198-38.035268L848.394005 358.937185zM788.639063 406.856567c-12.821003 0-23.212678-10.392698-23.212678-23.212678 0-12.784164 10.390651-23.175839 23.212678-23.175839s23.212678 10.391674 23.212678 23.175839C811.850717 396.463869 801.460066 406.856567 788.639063 406.856567z"  horiz-adv-x="1024" />

    
    <glyph glyph-name="cart" unicode="&#59003;" d="M352.512-20c-35.36 0-64-28.64-64-64s28.64-64 64-64 64 28.64 64 64S387.872-20 352.512-20L352.512-20zM800.512-20c-35.36 0-64-28.64-64-64s28.64-64 64-64 64 28.64 64 64S835.872-20 800.512-20L800.512-20zM864 12 344.224 12c-46.112 0-86.656 36.48-92.288 83.04l-54.272 382.08-30.88 178.56C164.864 671.264 150.656 684 136.768 684L96 684C78.336 684 64 698.336 64 716s14.336 32 32 32l40.768 0c46.688 0 87.68-36.48 93.344-83.04l30.816-177.888 54.496-383.712C317.216 88.512 330.656 76 344.224 76L864 76c17.696 0 32-14.304 32-32S881.696 12 864 12zM384.224 140c-16.608 0-30.656 12.8-31.872 29.664-1.312 17.632 11.936 32.96 29.536 34.24l434.112 32c15.936 0.096 29.376 12.608 31.136 26.848l50.4 288.384c1.28 10.752-1.696 22.528-8.128 29.824C885.28 585.632 880.096 588 874.048 588L320 588C302.336 588 288 602.336 288 620s14.336 32 32 32l554.048 0c24.448 0 46.912-10.144 63.264-28.608 18.688-21.088 27.264-50.816 23.52-81.632l-50.432-288.416C904.96 208.48 864.448 172 818.336 172l-431.744-31.904C385.792 140.032 384.992 140 384.224 140z"  horiz-adv-x="1024" />

    
    <glyph glyph-name="gouwu" unicode="&#58895;" d="M803.034 562.894l-76.133 0C714.197 668.508 624.459 749.219 516.434 749.219c-108.031 0-197.771-80.71-210.471-186.325l-84.855 0-82.833-715.43 742.771 0L803.034 562.894zM248.886 531.712l86.207 0 0.749 14.803c4.864 96.181 84.189 171.522 180.591 171.522 96.397 0 175.722-75.342 180.589-171.523l0.749-14.802 77.296 0 71.212-653.067L173.273-121.355 248.886 531.712zM407.068 451.171c0 13.798-11.186 24.981-24.979 24.981-13.794 0-24.98-11.183-24.98-24.981 0-13.793 11.186-24.975 24.98-24.975C395.883 426.196 407.068 437.378 407.068 451.171zM556.182 217.699l-48.58 98.441-48.585-98.441-108.632-15.783 78.608-76.627L410.435 17.09l97.166 51.089 97.167-51.088L586.21 125.288l78.61 76.628L556.182 217.699zM563.354 74.093l-55.753 29.314-55.753-29.314 10.648 62.081-45.105 43.969 62.332 9.057 27.877 56.484 27.875-56.484 62.338-9.057-45.106-43.968L563.354 74.093zM651.549 451.171c0 13.798-11.182 24.981-24.979 24.981-13.793 0-24.976-11.183-24.976-24.981 0-13.793 11.183-24.975 24.976-24.975C640.367 426.196 651.549 437.378 651.549 451.171zM621.671 651.102c-29.035 27.073-66.899 41.982-106.619 41.982-39.717 0-77.58-14.909-106.614-41.982-28.883-26.932-46.4-63.384-49.323-102.641l-1.247-16.748 314.369 0-1.246 16.747C668.07 587.717 650.555 624.169 621.671 651.102zM392.613 562.893c12.142 56.698 62.992 99.01 122.439 99.01 59.453 0 110.304-42.313 122.442-99.01L392.613 562.893z"  horiz-adv-x="1024" />

    
    <glyph glyph-name="pinglun1" unicode="&#59110;" d="M937.359294 659.445898l30.587084-30.559847L430.779445 91.746356l-97.589956-10.813065 0-13.536759-24.431535 0 0 24.349824 13.563996 0 10.867539 97.64443L870.27471 726.584956l30.423662-30.478136L937.359294 659.445898zM967.946377 812l-61.06522-48.835834 97.698904-97.617193 48.808597 61.037983L967.946377 812zM817.925311-212 182.487499-212c-100.613257 0-182.487499 81.874242-182.487499 182.487499L0 605.952548c0 100.613257 81.874242 182.487499 182.487499 182.487499l545.637621 0c17.921907 0 32.466433-14.517289 32.466433-32.439196s-14.544526-32.439196-32.466433-32.439196L182.487499 723.561655c-64.878391 0-117.609107-52.730716-117.609107-117.58187l0-635.465049c0-64.851154 52.757953-117.58187 117.609107-117.58187l635.437813 0c64.878391 0 117.609107 52.730716 117.609107 117.58187L935.534419 508.55325c0 17.921907 14.490052 32.439196 32.411959 32.439196s32.439196-14.517289 32.439196-32.439196l0-538.065752C1000.41281-130.098521 918.565805-212 817.925311-212z"  horiz-adv-x="1054" />

    
    <glyph glyph-name="fenlei" unicode="&#59086;" d="M928.101371 639.167676 257.89721 639.167676 928.101371 639.167676ZM928.101371 608.46849l-670.203138 0c-16.954137 0-30.699186 13.745049-30.699186 30.699186s13.745049 30.699186 30.699186 30.699186l670.203138 0c16.954137 0 30.699186-13.745049 30.699186-30.699186S945.055508 608.46849 928.101371 608.46849zM927.078065 296.193301 256.873903 296.193301 927.078065 296.193301ZM927.078065 265.494115l-670.203138 0c-16.954137 0-30.699186 13.745049-30.699186 30.699186s13.745049 30.699186 30.699186 30.699186l670.203138 0c16.954137 0 30.699186-13.745049 30.699186-30.699186S944.032202 265.494115 927.078065 265.494115zM928.101371-51.802438 257.89721-51.802438 928.101371-51.802438ZM928.101371-82.501624l-670.203138 0c-16.954137 0-30.699186 13.745049-30.699186 30.699186s13.745049 30.699186 30.699186 30.699186l670.203138 0c16.954137 0 30.699186-13.745049 30.699186-30.699186S945.055508-82.501624 928.101371-82.501624zM117.228423-51.802438m-51.314713 0a50.146 50.146 0 1 0 102.629425 0 50.146 50.146 0 1 0-102.629425 0ZM117.228423 296.193301m-51.314713 0a50.146 50.146 0 1 0 102.629425 0 50.146 50.146 0 1 0-102.629425 0ZM117.228423 639.167676m-51.314713 0a50.146 50.146 0 1 0 102.629425 0 50.146 50.146 0 1 0-102.629425 0Z"  horiz-adv-x="1024" />

    
    <glyph glyph-name="shuaxin" unicode="&#59046;" d="M916.002133 283.798044C907.423289 71.4432 733.184-98.222222 518.735644-98.222222c-219.932444 0-398.222222 178.289778-398.222222 398.222222S298.8032 698.222222 518.735644 698.222222c137.921422 0 258.525867-70.792533 329.955556-177.3568L848.6912 675.466667c0 12.561067 10.171733 22.755556 22.755556 22.755556s22.755556-10.194489 22.755556-22.755556l0-204.8c0-12.583822-10.171733-22.755556-22.755556-22.755556l-204.8 0c-12.583822 0-22.755556 10.171733-22.755556 22.755556 0 12.561067 10.171733 22.755556 22.755556 22.755556l145.863111 0c-63.055644 95.618844-170.666667 159.288889-293.774222 159.288889-194.810311 0-352.711111-157.9008-352.711111-352.711111 0-194.787556 157.9008-352.711111 352.711111-352.711111 190.964622 0 346.066489 151.847822 352.142222 341.310578l0.591644 0c0.045511 12.538311 10.194489 22.687289 22.7328 22.687289 12.583822 0 22.755556-10.194489 22.755556-22.755556C916.957867 286.847289 916.366222 285.368178 916.002133 283.798044zM848.6912 493.422222 848.6912 498.747022 839.611733 493.422222Z"  horiz-adv-x="1024" />

    
    <glyph glyph-name="fenxiang1" unicode="&#59133;" d="M840.519664 787.655546c88.442308-32.30373 133.958968-130.187061 101.651145-218.629369-32.29759-88.442308-130.187061-133.952828-218.628346-101.650121-88.448448 32.302707-133.958968 130.187061-101.657284 218.623229C654.187885 774.441593 752.071216 819.952112 840.519664 787.655546L840.519664 787.655546zM278.666232 434.390803c81.636299-29.817096 123.647111-120.179127 93.834108-201.810309-29.817096-81.635275-120.184243-123.646088-201.819518-93.834108-81.635275 29.818119-123.651204 120.179127-93.834108 201.808262C106.662787 422.19197 197.024817 464.202783 278.666232 434.390803L278.666232 434.390803zM861.933369 81.75744c74.850755-27.337625 113.350604-110.154819 86.018096-184.995341-27.337625-74.834382-110.149703-113.350604-185.000458-86.011956-74.850755 27.337625-113.350604 110.154819-86.018096 184.994318C704.269513 70.579867 787.081591 109.095066 861.933369 81.75744L861.933369 81.75744zM284.351722 237.545576l28.469402 44.058448 497.03824-321.139068-28.469402-44.058448L284.351722 237.545576 284.351722 237.545576zM793.029046 681.605208l29.627784-43.270503-558.530756-382.399293-29.627784 43.269479L793.029046 681.605208 793.029046 681.605208zM793.029046 681.605208"  horiz-adv-x="1024" />

    
    <glyph glyph-name="jiarugouwuche" unicode="&#59103;" d="M903.644 363.174h-638.030l-49.493 189.392h-185.538c-15.444 0-27.963-12.502-27.963-27.926s12.519-27.926 27.963-27.926h142.352l141.479-541.409c-26.583-17.081-44.273-46.845-44.273-80.703 0-52.917 43.116-95.979 96.11-95.979 52.982 0 96.093 43.061 96.093 95.979 0 14.35-3.257 27.909-8.929 40.145h147.685c-5.673-12.236-8.916-25.795-8.916-40.145 0-52.917 43.11-95.979 96.105-95.979 52.994 0 96.11 43.061 96.11 95.979 0 42.858-28.255 79.216-67.147 91.527-4.356 2.799-9.518 4.467-15.077 4.467h-333.962l-18.917 72.383h458.646l95.705 320.195zM406.435-125.401c0-22.13-18.022-40.123-40.173-40.123-22.157 0-40.186 17.993-40.186 40.123 0 22.124 18.028 40.145 40.186 40.145 22.15 0 40.173-18.021 40.173-40.145v0zM688.287-165.523c-22.151 0-40.186 17.993-40.186 40.123 0 22.124 18.034 40.145 40.186 40.145 22.158 0 40.185-18.022 40.185-40.145 0-22.13-18.027-40.123-40.185-40.123v0zM334.704 98.833l-54.483 208.49h548.374l-62.301-208.49h-431.589zM873.57 602.989h-50.981v50.916c0 15.425-12.521 27.922-27.965 27.922s-27.957-12.497-27.957-27.922v-50.916h-50.998c-15.444 0-27.958-12.502-27.958-27.929 0-15.425 12.514-27.926 27.958-27.926h50.998v-50.916c0-15.425 12.511-27.929 27.957-27.929 15.444 0 27.965 12.503 27.965 27.929v50.916h50.981c15.444 0 27.963 12.502 27.963 27.926-0.002 15.427-12.531 27.929-27.963 27.929v0zM637.667 734.927c-90.723-86.259-94.259-230.157-7.89-320.766 12.678-13.3 26.713-24.511 41.521-34.037l41.981 39.915c-15.579 8.338-30.164 19.167-43.001 32.631-65.115 68.311-62.444 176.783 5.946 241.805 68.398 65.031 177.005 62.365 242.121-5.947 65.114-68.31 62.444-176.782-5.954-241.813-13.739-13.062-29.161-23.265-45.473-30.89l40.020-41.985c15.586 8.884 30.447 19.531 44.010 32.427 90.729 86.265 94.272 230.16 7.9 320.772-86.37 90.609-230.451 94.154-321.18 7.889v0zM983.599 687.429z"  horiz-adv-x="1024" />

    
    <glyph glyph-name="chakan" unicode="&#58888;" d="M960.120111 291.485069c2.276856 10.895141-8.931416 33.053814-8.931416 33.053814-20.672832 62.264089-61.995983 119.099539-121.276111 165.31921-85.49314 66.658166-198.677968 103.369276-318.708715 103.369276s-233.216599-36.710087-318.709739-103.369276c-59.280128-46.219671-100.603279-103.055121-121.276111-165.31921 0 0-11.210319-22.157649-8.931416-33.053814-2.278903-10.895141 8.931416-33.053814 8.931416-33.053814 20.672832-62.264089 61.995983-119.099539 121.276111-165.31921 85.49314-66.659189 198.678992-103.369276 318.709739-103.369276s233.216599 36.710087 318.708715 103.369276c59.280128 46.219671 100.603279 103.055121 121.276111 165.31921C951.188694 258.431256 962.396967 280.588905 960.120111 291.485069zM511.203868 58.232654c-185.851848 0-341.464999 100.192933-378.364397 233.252415 36.899398 133.059482 192.512548 233.252415 378.364397 233.252415s341.464999-100.192933 378.364397-233.252415C852.668867 158.425587 697.055716 58.232654 511.203868 58.232654zM511.205914 148.353185c-78.922491 0-143.130861 64.208371-143.130861 143.129838 0 78.923514 64.208371 143.131885 143.130861 143.131885 78.920444 0 143.128815-64.208371 143.128815-143.131885C654.334729 212.561555 590.126358 148.353185 511.205914 148.353185zM511.205914 366.126047c-41.156352 0-74.642001-33.484625-74.642001-74.643024 0-41.156352 33.485649-74.640977 74.642001-74.640977 41.157375 0 74.639954 33.484625 74.639954 74.640977C585.845869 332.641421 552.36329 366.126047 511.205914 366.126047z"  horiz-adv-x="1024" />

    
    <glyph glyph-name="gouwuche" unicode="&#59041;" d="M352.53359-17.922816c-35.238572 0-63.782675-28.54615-63.782675-63.786769 0-35.237549 28.545126-63.781652 63.782675-63.781652 35.240619 0 63.781652 28.545126 63.781652 63.781652C416.315242-46.467943 387.775232-17.922816 352.53359-17.922816L352.53359-17.922816 352.53359-17.922816zM799.016411-17.922816c-35.240619 0-63.787792-28.54615-63.787792-63.786769 0-35.237549 28.54615-63.781652 63.787792-63.781652 35.235502 0 63.781652 28.545126 63.781652 63.781652C862.798063-46.467943 834.251913-17.922816 799.016411-17.922816L799.016411-17.922816 799.016411-17.922816zM862.28641 13.965451 344.276533 13.965451c-45.957705 0-86.36295 36.354999-91.976808 82.759889l-54.087872 380.784516L167.436942 655.464851c-1.913583 15.526625-16.074094 28.223808-29.913287 28.223808l-40.627303 0c-17.607006 0-31.894408 14.287401-31.894408 31.887244 0 17.605983 14.287401 31.894408 31.894408 31.894408l40.627303 0c46.530756 0 87.383186-36.356023 93.028766-82.760912l30.710442-177.281659 54.313-382.409526c1.784646-14.799054 15.176654-27.270087 28.700669-27.270087l518.010901 0c17.635659 0 31.893384-14.253632 31.893384-31.888268C894.179794 28.223177 879.923092 13.965451 862.28641 13.965451L862.28641 13.965451zM384.140449 141.533872c-16.549931 0-30.550807 12.754488-31.766494 29.562293-1.304715 17.572214 11.895935 32.848129 29.435403 34.122145l432.643628 31.895431c15.878642 0.092098 29.27372 12.564154 31.026644 26.754341l50.228985 287.404756c1.27504 10.715039-1.687432 22.452361-8.096399 29.722952-4.116761 4.656043-9.28548 7.016811-15.309684 7.016811L320.133669 588.012599c-17.605983 0-31.893384 14.287401-31.893384 31.894408 0 17.599843 14.287401 31.887244 31.893384 31.887244l552.167838 0c24.364921 0 46.749744-10.107195 63.046918-28.511357 18.627243-21.017686 27.172873-50.6424 23.440875-81.352843l-50.258661-287.439548c-5.421476-44.712341-45.797046-81.068364-91.753727-81.068364l-430.278767-31.795147C385.702014 141.563548 384.903835 141.533872 384.140449 141.533872L384.140449 141.533872zM384.140449 141.533872"  horiz-adv-x="1024" />

    
    <glyph glyph-name="daifahuo" unicode="&#59007;" d="M320.797867 48.288708l-127.678924 0c-14.851303 0-26.843746-12.032709-26.843746-26.877301 0-14.849625 11.992444-26.882334 26.843746-26.882334l127.678924 0c14.842914 0 26.837035 12.032709 26.837035 26.882334C347.634903 36.255999 335.640781 48.288708 320.797867 48.288708zM448.402971 177.578256l-255.284027 0c-14.851303 0-26.843746-12.032709-26.843746-26.875623 0-14.844592 11.992444-26.877301 26.843746-26.877301l255.284027 0c14.844592 0 26.837035 12.032709 26.837035 26.877301C475.240006 165.545547 463.247562 177.578256 448.402971 177.578256zM1064.386416 812 859.172687 812c-0.010066 0-0.021811 0-0.031877 0L350.814209 812c-0.010066 0-0.021811 0-0.031877 0L145.568603 812c-80.266157 0-145.568603-65.302446-145.568603-145.568603l0-732.861117c0-80.267835 65.302446-145.570281 145.568603-145.570281l918.817813 0c80.267835 0 145.570281 65.302446 145.570281 145.570281L1209.956697 666.431397C1209.956697 746.697554 1144.654251 812 1064.386416 812zM388.563227 736.501964l432.828565 0L821.391792 446.982094l-25.202922 17.790693c-13.049416 9.21076-30.486107 9.21076-43.535523 0l-63.05596-44.506931-62.987173 44.042199c-6.496187 4.543304-14.062768 6.813278-21.632704 6.813278-7.566581 0-15.136517-2.271652-21.631026-6.813278l-62.987173-44.042199-63.05596 44.506931c-13.049416 9.21076-30.484429 9.21076-43.535523 0l-25.202922-17.790693L388.564905 736.501964zM1134.45866-66.429719c0-38.63654-31.434027-70.072244-70.072244-70.072244L145.568603-136.501964c-38.63654 0-70.070566 31.434027-70.070566 70.072244L75.498036 666.431397c0 38.63654 31.434027 70.070566 70.070566 70.070566l167.496588 0L313.065191 374.131522c0-14.101355 7.860184-27.028297 20.381114-33.517773 12.517574-6.48612 27.613826-5.455991 39.134827 2.675986l62.95194 44.434789 62.953618-44.434789c13.000762-9.177206 30.358599-9.214116 43.399627-0.095631L604.97751 387.310124l63.089515-44.114342c13.03935-9.118485 30.398865-9.081575 43.399627 0.095631l62.953618 44.434789 62.95194-44.434789c6.489476-4.580214 14.111422-6.908909 21.771956-6.908909 5.935823 0 11.896813 1.39923 17.364548 4.231246 12.52093 6.487798 20.381114 19.414739 20.381114 33.517773l0 362.370442 167.496588 0c38.63654 0 70.072244-31.434027 70.072244-70.070566L1134.45866-66.429719z"  horiz-adv-x="1210" />

    
    <glyph glyph-name="demo01" unicode="&#58883;" d="M960-151.776c-8.192 0-16.384 3.136-22.656 9.344l-161.408 161.408c-12.032 12.032-12.544 31.36-1.152 44.032 61.44 68.288 95.296 156.48 95.296 248.384 0 204.736-166.592 371.264-371.264 371.264S127.616 516.192 127.616 311.456s166.528-371.264 371.264-371.264c54.144 0 106.304 11.392 155.072 33.792 16 7.424 35.072 0.32 42.432-15.68 7.424-16.064 0.384-35.072-15.68-42.432-57.216-26.368-118.4-39.68-181.824-39.68-240 0-435.264 195.264-435.264 435.264S258.816 746.72 498.816 746.72s435.264-195.264 435.264-435.264c0-97.536-32.512-191.616-92.16-267.904l140.672-140.672c12.48-12.48 12.48-32.768 0-45.248C976.384-148.64 968.192-151.776 960-151.776z"  horiz-adv-x="1024" />

    
    <glyph glyph-name="paizhao" unicode="&#58952;" d="M813.812907-16.826855l-31.770588 0 0 0L241.960751-16.826855l-0.004093 0-31.766494 0c-35.092239 0-63.541175 28.369118-63.541175 63.365166L146.648988 474.256766c0 34.996049 28.448936 63.365166 63.541175 63.365166l31.766494 0 0.004093 0 0 0 103.249549 0 39.709397 63.365166c0 8.749268 22.99983 15.84078 31.774681 15.84078l190.614315 0c8.769734 0 31.770588-7.091512 31.770588-15.84078l39.712467-63.365166 103.250572 0 31.770588 0c35.092239 0 63.537082-28.369118 63.537082-63.365166l0-427.718455C877.349989 11.542262 848.905146-16.826855 813.812907-16.826855L813.812907-16.826855zM512.001023 474.256766c-114.046453 0-206.504214-92.201935-206.504214-205.940372 0-113.739461 92.457762-205.936279 206.504214-205.936279 114.043383 0 206.496028 92.196819 206.500121 205.928093l0 0.016373C718.497051 382.058924 626.044406 474.256766 512.001023 474.256766L512.001023 474.256766zM512.001023 125.745281c-78.958306 0-142.963039 63.828724-142.963039 142.571113 0 78.738295 64.004733 142.571113 142.963039 142.571113 78.955236 0 142.963039-63.832817 142.963039-142.571113C654.964062 189.574005 590.95626 125.745281 512.001023 125.745281L512.001023 125.745281zM512.001023 125.745281"  horiz-adv-x="1024" />

    
    <glyph glyph-name="daogou" unicode="&#59042;" d="M835.420017 747.923636 189.730179 747.923636c-68.468394 0-124.71749-56.120159-124.71749-124.588553l0-509.23912c0-68.468394 56.250118-123.419937 124.71749-123.419937l173.052335 0 127.944997-128.026862c6.060019-6.04467 13.992689-9.253758 21.925359-9.253758 7.955182 0 15.912411 2.946099 21.976524 9.022491 12.108782 12.138458 12.08627 31.746028-0.051165 43.855834L397.545248 43.511371c-5.819542 5.806239-13.704117 9.586332-21.925359 9.586332L189.730179 53.097704c-34.233686 0-62.295811 26.764574-62.295811 60.998259L127.434367 623.335083c0 34.233686 28.062126 63.190181 62.295811 63.190181l645.689838 0c34.233686 0 60.517305-28.955472 60.517305-63.190181l0-509.23912c0-34.233686-26.28362-60.998259-60.517305-60.998259L580.86953 53.097704c-17.144472 0-31.043017-14.066367-31.043017-31.210839s13.898545-31.210839 31.043017-31.210839l254.550487 0c68.468394 0 122.938983 54.951543 122.938983 123.419937L958.359001 623.335083C958.359001 691.803477 903.888412 747.923636 835.420017 747.923636zM283.972587 254.420919c45.031613-61.123103 121.945353-92.115977 228.602511-92.115977 106.065687 0 183.100178 31.026644 228.960669 92.217285 47.499827 63.376423 48.647977 143.163607 42.763966 194.325847 9.517771 10.019191 15.371082 23.555485 15.371082 38.467103 0 30.860868-25.016767 55.876612-55.876612 55.876612-30.859845 0-55.876612-25.016767-55.876612-55.876612 0-23.589254 14.625092-43.74941 35.296901-51.947116 3.880377-40.654932 1.830695-99.521644-31.532157-143.843082-33.534767-44.547589-93.795223-67.134003-179.106214-67.134003-85.691661 0-145.731082 22.416546-178.449251 66.626443-33.225729 44.89449-33.338293 104.835673-28.40698 144.656611 20.260439 8.389064 34.519188 28.346605 34.519188 51.640124 0 30.860868-25.016767 55.876612-55.876612 55.876612-30.859845 0-55.876612-25.016767-55.876612-55.876612 0-15.321964 6.17156-29.199019 16.159028-39.293935C237.796918 397.765651 237.159398 317.959024 283.972587 254.420919z"  horiz-adv-x="1024" />

    
    <glyph glyph-name="aixin" unicode="&#58920;" d="M750.155587 708.477228c-108.196211 0-200.75221-66.945715-238.523465-161.669076-37.770232 94.723362-130.323161 161.669076-238.521418 161.669076-141.768841 0-256.694313-114.926496-256.694313-256.694313 0-79.879282 37.112246-149.783375 93.702102-201.584158l401.514653-391.617236 244.565065 235.266281c40.011272 36.421514 77.415161 72.213695 110.182448 105.994056l46.198182 44.442188c57.06774 51.715849 94.272084 127.35762 94.272084 207.498868C1006.850923 593.551756 891.924427 708.477228 750.155587 708.477228z"  horiz-adv-x="1024" />

    
    <glyph glyph-name="me" unicode="&#58885;" d="M686.910409 215.807572c83.488692 58.666 138.508059 158.340622 138.508059 270.490566 0 179.324753-140.875172 325.701862-313.482444 325.701862-172.543296 0-313.482444-146.377109-313.482444-325.701862 0-112.149944 55.083344-211.824566 138.572035-270.490566-159.748094-71.205298-272.921654-235.815569-272.921654-427.487692l89.566413 0c0 206.130701 159.940022 372.148444 358.26565 372.148444 198.389604 0 358.329626-166.081719 358.329626-372.148444l89.502437 0C959.768087-20.007997 846.594527 144.538298 686.910409 215.807572zM511.936024 253.553417c-124.113457 0-223.916031 103.577159-223.916031 232.680745 0 129.03961 99.738598 232.616769 223.916031 232.616769s223.916031-103.577159 223.916031-232.616769C735.852055 357.130576 636.049481 253.553417 511.936024 253.553417z"  horiz-adv-x="1024" />

    
    <glyph glyph-name="minus1" unicode="&#58894;" d="M789.848 474.796l-277.848-277.848-277.848 277.848-46.303-46.303 324.151-324.151 324.151 324.151-46.303 46.303z"  horiz-adv-x="1024" />

    
    <glyph glyph-name="daishouhuo" unicode="&#58900;" d="M0.256-22.752C0.896-22.88-1.472-64.48 37.632-63.712 76.544-62.944 74.048-22.752 74.048-22.752L74.048 668.768C74.048 687.648 89.344 702.944 108.224 702.944L621.824 702.944C640.704 702.944 656 687.648 656 668.768L657.152 557.152C658.56 526.944 692.48 517.28 692.48 517.28 692.48 517.28 859.776 434.208 908.8 407.904 947.776 386.976 947.52 350.944 947.52 350.944L947.52-28.448C947.52-48.544 963.84-64.864 984-64.864 1004.096-64.864 1020.416-48.544 1020.416-28.448L1020.416 354.336 1020.352 354.336C1018.304 424.48 955.52 466.016 955.52 466.016L730.048 579.936 727.744 682.464C727.744 732.768 686.976 773.6 636.672 773.6L91.136 773.6C40.832 773.6 0 732.768 0 682.464 0 682.464 0-22.752 0.256-22.752ZM838.208 300.832 727.744 300.832 727.744 410.144C727.744 430.304 711.424 446.624 691.328 446.624 671.168 446.624 654.848 430.304 654.848 410.144L654.848 264.352C654.848 244.192 671.168 227.872 691.328 227.872L838.208 227.872C858.368 227.872 874.688 244.192 874.688 264.352 874.688 284.512 858.368 300.832 838.208 300.832ZM726.592 123.104C657.024 123.104 598.656 75.04 582.784 10.336L437.632 10.336C421.824 75.04 363.456 123.104 293.824 123.104 212.096 123.104 145.792 56.8 145.792-24.992 145.792-106.784 212.096-173.088 293.824-173.088 362.624-173.088 420.48-126.176 437.056-62.624L583.36-62.624C600-126.176 657.856-173.088 726.592-173.088 808.384-173.088 874.688-106.784 874.688-24.992 874.688 56.8 808.384 123.104 726.592 123.104ZM293.824-101.344C251.712-101.344 217.536-67.168 217.536-24.992 217.536 17.184 251.712 51.296 293.824 51.296 336 51.296 370.176 17.184 370.176-24.992 370.176-67.168 336-101.344 293.824-101.344ZM726.592-101.344C684.48-101.344 650.304-67.168 650.304-24.992 650.304 17.184 684.48 51.296 726.592 51.296 768.768 51.296 802.944 17.184 802.944-24.992 802.944-67.168 768.768-101.344 726.592-101.344Z"  horiz-adv-x="1037" />

    
    <glyph glyph-name="xitongxiaoxi" unicode="&#59025;" d="M182.916495 756.515315l665.520489 0c65.769936 0 119.574353-53.803393 119.574353-119.575376l0-665.518442c0-65.770959-53.803393-119.575376-119.574353-119.575376L182.916495-148.15388c-65.770959 0-119.595842 53.803393-119.595842 119.575376L63.320653 636.939939C63.320653 702.711921 117.145535 756.515315 182.916495 756.515315L182.916495 756.515315zM368.426559 212.485831c0 0 69.808926-73.268724 72.383564-74.999135 14.46034-9.619078 36.19127-11.926634 40.950667 9.475815l0 297.628608c0.328481 16.788361-18.168802 39.323611-38.128389 16.375969l-74.360592-75.225285-95.681176 0c-24.140817-0.845251-22.410406-19.816325-22.410406-19.816325l0-135.332245c0-16.375969 21.545712-18.10638 21.545712-18.10638L368.426559 212.486854 368.426559 212.485831zM554.597679 419.358435c0 0 129.317251-125.856429-5.170766-239.643985l0-36.19127c154.036235 51.763944 124.456546 292.478308 4.532223 329.927221L554.597679 419.358435 554.597679 419.358435zM643.068639 501.505363c15.715937 10.752902 198.98189-219.333404-0.206708-388.983245l0-47.830355c184.54304 85.402065 179.269943 390.219399 7.127328 475.868081l-7.395434 3.131317L643.068639 501.505363z"  horiz-adv-x="1024" />

    
    <glyph glyph-name="dianzan1" unicode="&#59135;" d="M215.12605 487.260504 51.630252 487.260504C17.210084 487.260504 17.210084 452.840336 17.210084 452.840336L51.630252-93.579832c0-34.420168 34.420168-34.420168 34.420168-34.420168l141.983193 0c30.117647 0 30.117647 21.512605 30.117647 21.512605L258.151261 444.235294C253.848739 487.260504 215.12605 487.260504 215.12605 487.260504zM937.94958 487.260504l-271.058824 0C770.151261 874.487395 593.747899 896 593.747899 896c-77.445378 0-60.235294-60.235294-64.537815-68.840336 0-189.310924-202.218487-339.89916-202.218487-339.89916l0-542.117647c0-51.630252 73.142857-73.142857 103.260504-73.142857L834.689076-128c38.722689 0 68.840336 98.957983 68.840336 98.957983 98.957983 344.201681 98.957983 447.462185 98.957983 447.462185C1006.789916 491.563025 937.94958 487.260504 937.94958 487.260504z"  horiz-adv-x="1024" />

    
    <glyph glyph-name="xingxing" unicode="&#58884;" d="M1017.368976 499.979478 667.567102 548.849512 511.493463 856.033753 355.419825 548.849512 5.617951 499.979478 258.96196 261.258515 198.844767-76.129632 511.493463 83.516368 824.14216-76.129632 764.024967 261.258515Z"  horiz-adv-x="1024" />

    
    <glyph glyph-name="dingbu" unicode="&#59127;" d="M563.2 725.333333 874.666667 725.333333c12.8 0 21.333333 8.533333 21.333333 21.333333s-8.533333 21.333333-21.333333 21.333333L149.333333 768C136.533333 768 128 759.466667 128 746.666667s8.533333-21.333333 21.333333-21.333333l311.466667 0L134.4 398.933333c-8.533333-8.533333-8.533333-21.333333 0-29.866667s21.333333-8.533333 29.866667 0L490.666667 695.466667 490.666667 21.333333c0-12.8 8.533333-21.333333 21.333333-21.333333s21.333333 8.533333 21.333333 21.333333L533.333333 695.466667l326.4-326.4c4.266667-4.266667 10.666667-6.4 14.933333-6.4s10.666667 2.133333 14.933333 6.4c8.533333 8.533333 8.533333 21.333333 0 29.866667L563.2 725.333333z"  horiz-adv-x="1024" />

    
    <glyph glyph-name="dizhi1" unicode="&#59067;" d="M856.954985 510.018112c-0.576121-51.994188-17.180288-99.533924-39.609113-145.413857-33.606399-68.75185-78.228689-130.188084-126.728286-188.95349-45.148269-54.706973-93.597725-106.356306-145.30948-154.923442-18.070564-16.966417-34.56012-17.48728-53.085032-0.859577-95.919607 86.087681-182.122921 180.470281-247.924579 292.121174-10.708899 18.169825-20.417005 36.901445-28.77844 56.283888-7.924483 18.371416-1.090844 37.588083 16.018835 45.521776 17.158798 7.957229 36.875862 0.977257 45.222971-17.178241 39.327704-85.524862 96.852862-158.196998 159.714562-227.119741 24.238031-26.575262 49.630351-52.033074 75.916017-76.598562 3.251044-3.035126 5.296633-5.501294 9.914814-0.850367 87.10894 87.772043 168.662351 179.933045 228.0356 289.487184 17.307178 31.93534 31.737842 65.306378 36.57194 101.670587 7.284917 54.81749-3.724835 106.969267-29.730115 155.072845-49.526997 91.616604-126.402875 143.862525-231.327576 147.546428-119.527281 4.194532-225.729068-72.993454-263.348873-186.984648-9.450233-28.636201-14.455223-57.984622-14.845103-88.142479-0.278339-21.561062-14.415314-36.784788-33.901111-36.734646-19.547195 0.047072-33.82027 15.626909-33.762965 36.842093 0.442068 160.357198 110.895693 299.273061 266.558985 335.243297C575.346235 875.812215 713.3094 822.290231 791.261797 712.443427 834.320475 651.769556 855.712691 584.135156 856.954985 510.018112zM136.976186-25.538397c254.766404 0 508.070504 0 761.591545 0-0.037862 4.378727-2.922563 7.237845-4.750187 10.443863-33.05279 58.048067-66.178235 116.059296-99.363032 174.032662-7.121188 12.438287-7.562233 24.825408 0.360204 36.855396 7.136537 10.840906 17.59882 16.087397 30.610158 15.196097 11.692297-0.806365 20.893866-6.54916 26.681686-16.642029 45.293579-79.001285 90.644463-157.970848 135.468344-237.237169 13.837146-24.473391-3.272533-50.588165-32.371268-50.595328-151.58644-0.050142-303.172881-0.023536-454.755228-0.023536-138.542356 0-277.091876 0.693802-415.621952-0.533143-31.091112-0.277316-50.15326 28.113291-33.062 56.870242 44.724621 75.246775 87.2389 151.807475 130.681318 227.818659 9.356089 16.367783 23.981181 23.556509 39.297005 19.578917 22.651906-5.892197 32.509415-29.940916 20.503986-51.17452-23.185049-41.015136-46.706765-81.84096-70.065775-122.756835C160.695401 16.175657 149.256884-3.965056 136.976186-25.538397zM653.782655 515.688251c0.008186-74.774007-61.005422-135.555325-135.90632-135.38648-74.259284 0.165776-134.827755 60.983933-134.825708 135.37727 0.004093 74.859965 60.867276 135.492904 135.870504 135.352711C593.176322 650.894629 653.776516 590.075449 653.782655 515.688251zM518.829034 583.348234c-37.586037-0.010233-68.025303-30.203906-68.087725-67.536162-0.062422-37.753859 30.839379-68.179822 68.88488-67.822688 36.531008 0.342808 66.62849 31.17707 66.470901 68.095911C585.939501 552.94376 555.526841 583.35642 518.829034 583.348234z"  horiz-adv-x="1024" />

    
    <glyph glyph-name="quxiao" unicode="&#59191;" d="M489.04 896c15.3344 0 30.6688 0 46.0032 0 1.6208-0.2784 3.232-0.6288 4.8608-0.8256 22.2992-2.6864 44.8448-4.0672 66.864-8.2336 116.944-22.1296 215.3904-77.9408 292.4256-168.3856 105.9648-124.4096 144.0912-268.568 115.76-429.4032-16.976-96.3648-60.1552-180.568-126.7824-252.1328-85.264-91.584-190.3408-145.472-314.7056-161.0192-68.3136-8.5392-135.7824-3.464-201.8352 15.8256-124.1792 36.264-221.4976 109.1296-291.6384 217.7136C36.4432 176.9536 11.104 251.024 2.84 330.88 1.7632 341.2752 0.9408 351.696 0 362.104c0 14.664 0 29.328 0 43.992 0.2768 1.944 0.7104 3.8784 0.808 5.8304 1.712 34.3696 6.6928 68.2816 15.7424 101.4576C53.9216 650.4064 133.9824 755.192 256.1648 827.4032c62.3392 36.8432 130.0544 58.2384 202.1168 65.7104C468.5248 894.176 478.7872 895.0432 489.04 896zM374.6592 208.8608c46.0112 46 92.0272 92.0048 138.68 138.648 45.6912-45.6848 91.7008-91.688 137.296-137.2752 11.8848 11.7568 23.8192 23.5648 36.208 35.8208-45.9056 45.8864-91.9392 91.9024-137.952 137.8976 46.1328 46.1168 92.1696 92.1376 137.8896 137.8432-12.5552 12.5056-24.5536 24.4576-37.2016 37.056-45.6784-45.6672-91.7136-91.6928-137.9696-137.9376-45.9024 45.904-91.9232 91.9264-137.4048 137.4096-12.3024-12.3136-24.248-24.272-36.9968-37.0336 45.624-45.6096 91.6544-91.624 138.1264-138.0816-45.7984-45.7808-91.8208-91.784-137.56-137.5056C349.7856 233.704 361.664 221.84 374.6592 208.8608z"  horiz-adv-x="1024" />

    
    <glyph glyph-name="xin1" unicode="&#58944;" d="M512.011256 5.895523c-5.384637 0-10.768251 1.856277-15.129582 5.567809l-333.270363 283.751552c-0.473791 0.403183-0.931209 0.825808-1.372254 1.26583l-23.506367 23.502273c-48.924269 48.916083-75.866898 113.953332-75.866898 183.133947 0 69.179592 26.943652 134.216841 75.867922 183.130877 48.90892 48.916083 113.946168 75.857688 183.126784 75.857688s134.218888-26.940582 183.137017-75.858712l7.009647-7.006578 7.000438 7.003508c48.91506 48.921199 113.953332 75.862805 183.139064 75.862805 69.183685 0 134.226051-26.940582 183.145204-75.858712 48.90892-48.91506 75.843362-113.951285 75.843362-183.127807s-26.934442-134.214794-75.842339-183.131901l-23.527856-23.51046c-0.438998-0.437975-0.89437-0.859577-1.366114-1.260713L527.139815 11.464355C522.780531 7.7518 517.39487 5.895523 512.011256 5.895523zM194.579627 330.147488l317.430606-270.264377 317.41935 270.2654 22.861684 22.846334c82.760912 82.776262 82.760912 217.470987-0.007163 300.248272-40.101323 40.101323-93.422739 62.187341-150.140509 62.187341-56.716746 0-110.034069-22.084994-150.130276-62.187341l-23.500227-23.508413c-4.375657-4.377704-10.311857-6.837732-16.500812-6.838755-6.189979-0.001023-12.127202 2.456958-16.503882 6.833639l-23.514553 23.511483c-40.104393 40.104393-93.422739 62.190411-150.136416 62.190411-56.712653 0-110.026906-22.084994-150.123113-62.187341-40.10951-40.101323-62.196551-93.4166-62.196551-150.127206 0-56.710606 22.088064-110.026906 62.194504-150.126182L194.579627 330.147488z"  horiz-adv-x="1024" />

    
    <glyph glyph-name="qianming" unicode="&#58951;" d="M65.874313 140.557502c-2.606361-7.53972 1.549286-11.955286 9.233292-9.813506l157.802002 43.98477c7.684006 2.14178 9.498328 8.647961 4.03285 14.45727L134.066415 298.532443c-5.466502 5.809309-12.069897 4.3951-14.676257-3.14462L65.874313 140.557502zM182.121897 362.409263c-5.798053-5.478781-5.972015-14.619976-0.385786-20.314675l106.577341-108.651582c5.586229-5.694699 14.883989-5.854335 20.661575-0.354064l375.10312 357.048929c5.777587 5.500271 6.033413 14.753005 0.566912 20.563338L581.769017 720.046592c-5.466502 5.809309-14.682397 6.081509-20.48045 0.602727L182.121897 362.409263zM715.328895 846.189547c-5.466502 5.809309-14.791891 6.199189-20.722974 0.865717l-68.12661-61.260226c-5.932106-5.333472-6.187933-14.33038-0.569982-19.993357l108.506273-109.367897c5.617951-5.662977 14.923898-5.776563 20.678972-0.25378l62.58336 60.058864c5.755074 5.522784 5.992481 14.795984 0.525979 20.605294L715.328895 846.189547zM63.222927 65.33324l833.440943 0 0-67.535139-833.440943 0 0 67.535139Z"  horiz-adv-x="1024" />

    
    <glyph glyph-name="xingzuo" unicode="&#58899;" d="M159.981644 281.471882c0-39.563064 13.770632-73.059969 40.863686-100.230796 26.992771-26.794249 60.137659-40.670282 99.866499-40.670282 38.869263 0 71.693856 13.821797 99.113345 40.934295 27.5341 27.275203 41.190121 60.403718 41.190121 99.181907 0 39.504736-13.656021 72.635297-40.811498 99.964736-27.421536 26.794249-60.621682 40.616046-100.245122 40.616046-38.919405 0-71.686692-13.821797-99.057063-41.038672C173.751253 352.954937 159.981644 320.191742 159.981644 281.471882zM921.130098-46.913217c-59.867506-53.646827-117.14093-80.499405-172.045401-80.499405-47.284933 0-87.286995 15.301498-119.725802 46.211485-32.070416 30.912034-48.104601 68.946278-48.104601 114.054639 0 60.45386 32.390711 157.679205 97.226369 292.197922l49.556673 103.237269c38.164205 79.760578 57.274448 144.537907 57.274448 194.179514 0 63.36005-18.789948 114.000404-56.469106 152.402015-37.731346 38.778188-87.721901 57.764612-149.85296 57.764612-58.299801 0-105.208157-17.142425-141.435243-51.007721-35.787064-34.656311-53.765531-79.398328-53.765531-134.945435 0-51.482535 16.897855-111.357204 50.41932-180.047656l20.191878-40.934295c33.521464-67.841108 50.360991-117.423363 50.360991-149.815097 0-51.015907-20.185738-96.166223-59.858296-134.150326-39.680744-38.033221-86.916559-56.971549-141.058666-56.971549-55.658647 0-103.264898 18.938328-142.240585 57.33994-39.304168 38.399565-58.734706 85.033675-58.734706 140.164297 0 52.910047 19.110243 98.753141 57.979506 137.1568 38.542828 38.457894 84.587514 57.764612 138.03275 57.764612 19.374256 0 40.755216-3.323699 64.075341-10.394744-37.031405 69.63701-55.602366 131.146922-55.602366 184.900174 0 69.578682 25.477254 127.818107 76.977185 174.033685C436.208826 872.256226 500.989225 895.412622 578.775846 895.412622c85.451184 0 154.060795-24.64019 205.888184-73.486688 51.443649-49.218982 77.410044-114.416889 77.410044-195.660238 0-40.251749-4.107551-75.278497-12.95915-104.340393-8.316409-29.546943-28.878724-77.918627-60.947094-145.337109l-35.410488-75.703169c-63.375399-134.150326-95.437629-220.660632-95.437629-260.122389 0-29.116131 8.850575-52.964282 26.722618-71.532173 17.48728-18.990516 40.427758-28.328185 67.854411-28.328185 36.272112 0 77.788667 20.149922 124.3184 60.403718L921.130098-46.913217z"  horiz-adv-x="1024" />

    
    <glyph glyph-name="fenxiang" unicode="&#58922;" d="M902.491087 180.923862c-0.045025 0.075725-0.091074 0.152473-0.137123 0.231267-22.296819 37.681204-55.691393 62.485123-99.307773 73.736375-42.452881 10.880815-82.696444 5.764284-119.643937-15.166421l0.127913 0.226151c-3.560082-1.832741-7.068999-3.795443-10.514471-5.919826L429.070754 375.275291c0.227174 2.907213 0.350994 5.612834 0.361227 8.137331 0.106424 29.134551-6.921643 55.875588-20.934798 79.907934l248.514004 144.131655c14.560624 8.43716 22.116717 25.234731 18.805298 41.726334-2.915399 14.497179-3.067872 20.019962-3.067872 20.992103 0 22.909779 7.92653 41.497113 24.87862 58.449203 17.066701 17.028838 35.666314 24.954345 58.589396 24.954345 0.051165 0 0.102331 0 0.152473 0 22.744004 0 41.266869-7.92653 58.21896-24.877597 17.041118-17.054421 24.967648-35.667338 24.967648-58.525951s-7.92653-41.444924-24.967648-58.474786c-16.96437-17.003256-35.461653-24.927739-58.21896-24.927739-0.090051 0.024559-0.165776 0.024559-0.217964 0-21.655206 0-39.234583-17.540492-39.271422-39.222303-0.039909-21.681812 17.526165-39.298028 39.207977-39.323611 0.102331 0 0.179079 0 0.280386 0 43.748387 0 82.047668 16.160051 113.789603 47.966455 31.80845 31.80538 47.941895 70.158896 47.941895 113.981984 0 43.798529-16.121166 82.151022-47.941895 114.034173-31.792077 31.807427-70.067822 47.914266-113.739461 47.914266-0.088004 0-0.178055 0-0.268106 0-43.785226 0-82.137719-16.107863-114.03315-47.914266-31.794124-31.806403-47.914266-70.184479-47.914266-114.034173 0-2.530636 0.11461-5.242398 0.331551-8.15575L352.571453 521.696082c-3.478218 2.199085-7.016811 4.242627-10.605545 6.152117 0.110517-0.103354 0.230244-0.214894 0.341784-0.319272-22.514783 12.144598-47.334052 18.323321-74.229608 18.420535-0.091074 0.001023-0.179079 0.001023-0.268106 0.002047-43.672662 0.159636-82.005712-15.808034-113.915469-47.498804-31.936363-31.765471-48.196699-70.060659-48.357358-113.858164-0.161682-43.822065 15.83157-82.234933 47.52234-114.1539 31.625278-31.924083 69.866231-48.226375 113.614617-48.384987 0.102331 0 0.179079 0 0.280386 0 21.682835-0.055259 39.311331 17.497513 39.352263 39.178301 0.041956 21.682835-17.472953 39.288818-39.127136 39.367613-0.053212 0.022513-0.127913 0.021489-0.217964 0.001023-22.757307 0.082888-41.224914 8.075933-58.128909 25.139563-16.977673 17.09126-24.836665 35.70827-24.753777 58.56586 0.084934 22.856567 8.077979 41.441854 25.183566 58.432831 17.012466 16.889669 35.56603 24.74866 58.307987 24.664749 0.051165 0 0.101307 0 0.152473 0 22.921036-0.083911 41.491996-8.079002 58.496276-25.168216 16.889669-17.014512 24.74866-35.628452 24.664749-58.540278-0.00307-0.972141-0.176009-6.493901-3.143597-20.9788-3.372817-16.479323 4.120854-33.30657 18.651802-41.795918l16.782222-9.816576c-0.00307-0.00307-0.00614-0.005117-0.00921-0.008186l2.26253-1.309832 5.119601-2.995217 0.01535 0.021489 243.563248-141.018757-0.024559-0.053212 3.666506-2.054799 1.930979-1.118474 0.01535 0.026606 18.800181-10.536984c14.676257-8.235568 32.980135-6.183839 45.485961 5.064342 10.991332 9.891278 15.667841 12.83533 16.503882 13.329587 19.717064 11.667737 39.749306 14.310937 62.971194 8.355295 23.345708-6.014994 39.639812-17.986653 51.313689-37.712927 0.025583-0.044002 0.052189-0.088004 0.077771-0.132006 11.58178-19.572778 14.19428-39.550785 8.238638-62.772672-5.997598-23.351847-17.980513-39.652092-37.652552-51.293223-19.672038-11.640108-39.705304-14.284331-63.039755-8.29185-23.27203 5.942339-39.511899 17.824971-51.101865 37.411051-0.025583 0.089028-0.064468 0.153496-0.110517 0.187265-11.028171 18.636452-35.075867 24.832572-53.754275 13.82282-18.680455-11.007705-24.894993-35.096333-13.876032-53.769624 0.052189-0.086981 0.091074-0.153496 0.143263-0.2415 22.278399-37.650505 55.691393-62.381769 99.231025-73.501014 43.569308-11.177574 84.793198-5.529947 122.508171 16.787338 37.692461 22.305005 62.49024 55.709813 73.724095 99.331309C930.360831 102.195799 924.731624 143.338848 902.491087 180.923862z"  horiz-adv-x="1024" />

    
    <glyph glyph-name="delete-01" unicode="&#58896;" d="M865.775 590.372c-16.296 0-29.481-13.202-29.481-29.487v-560.144c0-32.512-26.46-58.959-58.965-58.959l-530.659 0c-32.517 0-58.965 26.447-58.965 58.959l0 560.144c0 16.285-13.2 29.487-29.479 29.487-16.281 0-29.481-13.202-29.481-29.487v-560.144c0-65.022 52.898-117.924 117.926-117.924h530.659c65.041 0 117.925 52.901 117.925 117.924l0 560.144c-0.001 16.285-13.186 29.487-29.48 29.487zM423.559 89.191v471.694c0 16.285-13.204 29.487-29.485 29.487-16.279 0-29.479-13.202-29.479-29.487v-471.692c0-16.286 13.2-29.486 29.479-29.486 16.28-0.001 29.485 13.198 29.485 29.484zM983.696 767.255h-253.12l-109.288 109.288c-5.526 5.528-13.015 8.639-20.844 8.639h-176.885c-7.816 0-15.318-3.11-20.847-8.639l-109.288-109.288h-253.122c-16.281 0-29.485-13.2-29.485-29.474 0-16.285 13.203-29.491 29.485-29.491h265.328c7.814 0 15.318 3.114 20.846 8.642l109.287 109.286h152.473l109.292-109.285c5.527-5.528 13.015-8.642 20.844-8.642h265.328c16.295 0 29.484 13.206 29.484 29.491-0.001 16.273-13.19 29.473-29.488 29.473zM659.408 89.191v471.694c0 16.285-13.192 29.487-29.483 29.487-16.294 0-29.48-13.202-29.48-29.487v-471.692c0-16.286 13.187-29.486 29.48-29.486 16.291-0.001 29.483 13.198 29.483 29.484z"  horiz-adv-x="1024" />

    
    <glyph glyph-name="details" unicode="&#58987;" d="M345.809 659.658h590.903c20.427 0 36.934 16.545 36.934 36.933 0 20.384-16.505 36.927-36.935 36.927h-590.902c-20.388 0-36.934-16.543-36.934-36.927-0.001-20.388 16.546-36.933 36.934-36.933zM50.355 696.591h0.020c-0.001 0.128-0.009 0.256-0.009 0.384-0.001-0.128-0.011-0.256-0.011-0.384zM50.374 697.358h147.684c-0.206 19.075-8.118 37.97-21.614 51.462-13.67 13.67-32.888 21.633-52.228 21.633-19.334 0-38.556-7.963-52.229-21.633-13.489-13.491-21.405-32.386-21.613-51.462v0 0zM50.374 696.591c0.209-19.072 8.125-37.97 21.615-51.46 13.672-13.671 32.891-21.634 52.229-21.634 19.339 0 38.557 7.963 52.228 21.634 13.495 13.491 21.409 32.386 21.614 51.46h0.018c0 0.128-0.009 0.256-0.010 0.384 0-0.128-0.008-0.256-0.009-0.384h-147.685zM50.373 697.358v0l-0.018 0.001c0-0.127 0.010-0.256 0.011-0.383-0 0.127 0.007 0.255 0.007 0.382v0zM198.058 697.359c0.001-0.127 0.009-0.256 0.009-0.383 0.001 0.127 0.010 0.256 0.010 0.383h-0.019zM936.709 418.091h-590.9c-20.388 0-36.934-16.546-36.934-36.929 0-20.389 16.546-36.933 36.934-36.933h590.903c20.427 0 36.934 16.544 36.934 36.933-0.002 20.383-16.507 36.929-36.937 36.929zM50.355 384.336h0.020c-0.001 0.128-0.009 0.256-0.009 0.384-0.001-0.128-0.011-0.254-0.011-0.384zM198.058 384.336h-147.685c0.209-19.072 8.125-37.968 21.615-51.46 13.672-13.671 32.891-21.633 52.229-21.633 19.339 0 38.557 7.96 52.228 21.633 13.495 13.491 21.407 32.387 21.613 51.46h0.019c0 0.128-0.009 0.256-0.010 0.384-0.001-0.129-0.008-0.255-0.009-0.384zM50.374 385.103h147.684c-0.208 19.075-8.118 37.969-21.614 51.461-13.67 13.672-32.888 21.636-52.228 21.636-19.334 0-38.556-7.964-52.229-21.636-13.489-13.491-21.405-32.384-21.613-51.461h-0.019c0-0.124 0.010-0.256 0.011-0.383-0 0.128 0.007 0.258 0.008 0.383zM198.066 384.721c0.001 0.128 0.010 0.259 0.010 0.383h-0.019c0.002-0.126 0.009-0.256 0.009-0.383zM936.709 102.664h-590.9c-20.388 0-36.934-16.506-36.934-36.932 0-20.422 16.546-36.927 36.934-36.927h590.903c20.427 0 36.934 16.505 36.934 36.927-0.002 20.426-16.507 36.932-36.937 36.932zM198.057 71.408c-0.208 19.075-8.118 37.967-21.614 51.46-13.67 13.671-32.888 21.636-52.228 21.636-19.334 0-38.556-7.962-52.229-21.636-13.49-13.492-21.407-32.384-21.614-51.46h-0.019c0-0.126 0.010-0.259 0.011-0.385 0 0.126 0.007 0.259 0.010 0.385h147.683zM50.375 70.639c-0.001 0.127-0.009 0.26-0.010 0.385-0.001-0.125-0.011-0.258-0.011-0.385h0.021c0.208-19.074 8.124-37.969 21.613-51.459 13.672-13.672 32.891-21.634 52.229-21.634 19.339 0 38.557 7.96 52.228 21.634 13.495 13.489 21.408 32.384 21.614 51.459h0.018c0 0.127-0.009 0.26-0.010 0.385 0-0.125-0.008-0.258-0.009-0.385h-147.683zM198.058 71.408c0.001-0.126 0.009-0.259 0.009-0.385 0.001 0.126 0.010 0.259 0.010 0.385h-0.019z"  horiz-adv-x="1024" />

    
    <glyph glyph-name="hot-02" unicode="&#58902;" d="M504.408-112.497c217.332 0 369.195 153.979 399.234 377.122 52.6 390.704-130.342 608.791-150.267 621.741-99.555-259.214-226.883-211.831-248.966-211.831 19.729 42.052 104.248 108.691 89.221 99.128-3.694-2.349-166.613 24.636-345.541-150.268-116.764-114.14-137.193-258.472-137.193-342.38 0-217.332 176.181-393.512 393.512-393.512v0zM300.306 389.782c0 0-48.84-150.092 52.592-138.827 101.434 11.271 123.974 131.489 270.486 131.489 0 0-122.403-189.757-45.39-225.442 77.012-35.691 97.296 7.514 169.053 60.106-9.388-84.528-41.396-255.527-278.068-236.741-236.68 18.784-348.997 229.089-168.673 409.415v0zM300.306 389.782z"  horiz-adv-x="1024" />

    
    <glyph glyph-name="creditcard" unicode="&#58903;" d="M909.112 752.040h-798.070c-56.167 0-100.156-45.6-100.156-103.806v-528.469c0-58.205 43.989-103.806 100.156-103.806h798.070c57.33 0 104.001 46.559 104.001 103.806l0 528.469c0 57.231-46.671 103.806-104.001 103.806zM957.435 119.766c0-25.582-22.113-47.184-48.322-47.184h-798.070c-24.956 0-44.477 20.717-44.477 47.184v323.11h890.869v-323.11zM957.435 574.998h-890.869v73.237c0 26.447 19.521 47.185 44.477 47.185h798.070c26.209 0 48.322-21.62 48.322-47.185l-0-73.237zM165.152 282.646h317.056v-37.747h-317.056v37.747z"  horiz-adv-x="1024" />

    
    <glyph glyph-name="juan" unicode="&#58905;" d="M614.4 416.337h-184.14c-23.354-29.642-49.404-58.386-79.046-84.435h335.046c-29.642 26.947-52.996 55.691-71.86 84.435zM836.267 896h-649.432c-103.298 0-186.835-83.537-186.835-186.835v-650.33c0-103.298 83.537-186.835 186.835-186.835h650.33c102.4 0 186.835 83.537 186.835 186.835l-0 650.33c-0.898 103.298-84.435 186.835-187.733 186.835zM813.811 239.382c-37.726 21.558-70.063 44.014-98.807 67.368-1.796-55.691-5.389-105.095-10.779-147.312-6.288-43.116-16.168-72.758-30.54-90.723-14.372-17.067-35.93-26.049-65.572-27.846h-120.365l-18.863 66.47c49.404-1.796 84.435-2.695 104.196-2.695 27.846 0 46.709 9.881 55.691 29.642 9.881 22.456 15.27 66.47 18.863 131.144l-168.87 0c-15.27-52.996-35.032-95.214-60.182-126.653-32.337-38.625-79.944-72.758-143.719-104.196l-44.912 55.691c55.691 24.253 98.807 51.2 129.347 80.842 21.558 23.354 39.523 54.793 52.098 94.316l-93.418 0v38.625c-35.93-26.947-74.554-50.302-115.874-70.063l-38.625 60.182c71.86 30.54 132.042 70.961 180.547 122.161l-155.396-0v64.674l206.596 0c14.372 21.558 26.947 44.014 37.726 67.368l-203.902-0v62.877h108.688c-15.27 33.235-32.337 65.572-52.098 97.011l61.081 19.761c19.761-32.337 36.828-64.674 51.2-99.705l-38.625-17.965h99.705c12.575 39.523 22.456 79.944 28.744 122.161l70.063-8.982c-7.186-40.421-17.067-79.046-27.846-113.179h132.042l-33.235 17.965c23.354 29.642 42.218 63.775 56.589 102.4l59.284-20.66c-16.168-38.625-35.032-71.86-55.691-99.705h105.095v-62.877h-287.439c-10.779-23.354-21.558-44.912-33.235-67.368l361.993-0v-64.674l-147.312-0c35.93-43.116 93.418-83.537 171.565-119.467l-45.811-56.589z"  horiz-adv-x="1024" />

    
    <glyph glyph-name="l-bc" unicode="&#58907;" d="M170.558 746.276h685.949c92.126 0 167.471-75.371 167.471-167.448v-391.069c0-92.078-75.345-167.448-167.471-167.448l-685.949-0c-92.101 0-167.448 75.369-167.448 167.448l-0 391.069c0.001 92.077 75.347 167.448 167.448 167.448v0zM46.127 574.050l934.859 0.808c0 66.416-54.345 120.741-120.761 120.741l-693.357-0c-66.417 0-120.74-54.325-120.74-120.741l-0-0.808zM980.986 484.812h-934.859v-293.080c0-66.418 54.323-120.74 120.74-120.74h693.357c66.416 0 120.761 54.322 120.761 120.74v293.080zM128.429 290.997h340.706v-45.441h-340.706v45.441zM128.429 372.341h170.352v-45.418h-170.352v45.418z"  horiz-adv-x="1024" />

    
    <glyph glyph-name="l-bc-01" unicode="&#58908;" d="M530.404 455.754c-7.903-15.172-14.026-27.995-18.871-38.075-4.425 10.275-10.156 21.933-17.228 35.429l-86.098 161.035h-71.033l118.223-217.743h-95.5v-56.689h120.871v-32.625h-120.871v-53.725h120.87v-99.504h63.764v99.504h120.022v53.725h-120.022v32.625h120.024v56.688h-95.54l117.81 217.743h-75.068l-81.353-158.388zM916.684 748.2h-809.366c-55.883 0-101.172-45.29-101.172-101.167v-526.050c0-55.875 45.29-101.182 101.172-101.182h809.363c55.859 0 101.17 45.307 101.172 101.182v526.050c0.001 55.879-45.31 101.167-101.169 101.167zM977.383 120.982c0-33.545-27.188-60.717-60.699-60.717h-809.366c-33.535 0-60.705 27.172-60.705 60.717v526.050c0 33.531 27.17 60.699 60.705 60.699h809.365c33.512 0 60.699-27.168 60.699-60.699v-526.050z"  horiz-adv-x="1024" />

    
    <glyph glyph-name="l-classify" unicode="&#58909;" d="M726.134 388.552c-40.242 0-78.111 15.682-106.571 44.141l-52.989 53.015c-28.455 28.455-44.166 66.303-44.166 106.566 0 40.268 15.712 78.111 44.166 106.596l52.989 52.991c28.46 28.459 66.329 44.166 106.571 44.166 40.288 0 78.161-15.708 106.621-44.166l52.984-52.991c28.46-28.485 44.116-66.327 44.116-106.596 0-40.263-15.656-78.111-44.116-106.566l-52.984-53.015c-28.46-28.46-66.329-44.141-106.621-44.141v0 0zM726.134 764.338c-31.798 0-61.708-12.399-84.136-34.888l-53.040-52.986c-22.491-22.489-34.864-52.374-34.864-84.192 0-31.793 12.373-61.677 34.864-84.187l53.040-52.991c22.43-22.459 52.338-34.859 84.136-34.859 31.793 0 61.702 12.369 84.187 34.859l53.040 52.991c22.435 22.51 34.808 52.393 34.808 84.187 0 31.823-12.373 61.702-34.808 84.192l-53.040 52.986c-22.484 22.489-52.393 34.888-84.187 34.888v0 0zM726.134 381.666c-42.071 0-81.661 16.379-111.465 46.158l-52.934 53.015c-29.803 29.746-46.212 69.313-46.212 111.434 0 42.096 16.409 81.687 46.212 111.465l52.934 52.989c29.828 29.774 69.394 46.182 111.465 46.182 42.121 0 81.712-16.409 111.46-46.182l52.989-52.989c29.777-29.777 46.156-69.344 46.156-111.465 0-42.121-16.379-81.712-46.156-111.434l-52.989-53.015c-29.748-29.779-69.339-46.158-111.46-46.158v0zM726.134 789.137c-38.384 0-74.51-14.98-101.728-42.147l-52.934-52.989c-27.197-27.192-42.177-63.313-42.177-101.728 0-38.434 14.98-74.53 42.177-101.697l52.934-53.015c27.217-27.167 63.313-42.121 101.728-42.121 38.459 0 74.555 14.954 101.723 42.121l52.989 53.015c27.167 27.141 42.121 63.263 42.121 101.697 0 38.44-14.954 74.561-42.121 101.728l-52.989 52.989c-27.162 27.167-63.289 42.147-101.723 42.147v0zM726.134 413.353c-33.627 0-65.258 13.096-89.035 36.874l-52.984 52.989c-23.778 23.803-36.904 55.434-36.904 89.061 0 33.646 13.126 65.277 36.904 89.056l52.984 52.989c23.778 23.803 55.414 36.904 89.035 36.904 33.646 0 65.277-13.101 89.080-36.904l52.989-52.989c23.778-23.803 36.848-55.41 36.848-89.056 0-33.627-13.070-65.227-36.848-89.061l-52.989-52.989c-23.772-23.778-55.408-36.874-89.080-36.874v0zM726.134 757.45c-29.965 0-58.102-11.671-79.298-32.869l-52.984-52.983c-21.198-21.172-32.869-49.359-32.869-79.324 0-29.934 11.671-58.126 32.869-79.319l52.984-52.989c21.198-21.167 49.359-32.843 79.298-32.843 29.989 0 58.152 11.676 79.348 32.843l52.984 52.989c21.172 21.222 32.818 49.385 32.818 79.319 0 29.965-11.647 58.126-32.818 79.324l-52.984 52.983c-21.198 21.198-49.389 32.869-79.348 32.869v0zM319.816 404.071h-74.934c-83.116 0-150.737 67.62-150.737 150.732v74.939c0 83.111 67.621 150.732 150.737 150.732h74.934c83.116 0 150.737-67.621 150.737-150.732v-74.939c-0-83.112-67.621-150.732-150.737-150.732v0 0zM244.881 748.795c-65.632 0-119.050-53.42-119.050-119.050v-74.939c0-65.658 53.419-119.076 119.050-119.076h74.934c65.632 0 119.050 53.419 119.050 119.076v74.939c0 65.63-53.419 119.050-119.050 119.050l-74.934 0zM319.816 397.187h-74.934c-86.904 0-157.621 70.713-157.621 157.617v74.939c0 86.903 70.717 157.621 157.621 157.621h74.934c86.934 0 157.621-70.718 157.621-157.621v-74.939c0-86.904-70.687-157.617-157.621-157.617v0zM244.881 773.591c-79.323 0-143.849-64.53-143.849-143.847v-74.939c0-79.319 64.526-143.844 143.849-143.844h74.934c79.348 0 143.849 64.525 143.849 143.844v74.939c0 79.317-64.5 143.847-143.849 143.847h-74.934zM319.816 428.844h-74.934c-69.45 0-125.934 56.515-125.934 125.96v74.939c0 69.448 56.484 125.934 125.934 125.934h74.934c69.45 0 125.935-56.485 125.935-125.934v-74.939c-0-69.443-56.485-125.96-125.935-125.96v0zM244.881 741.905c-61.864 0-112.162-50.323-112.162-112.162v-74.939c0-61.864 50.298-112.187 112.162-112.187h74.934c61.864 0 112.167 50.323 112.167 112.187v74.939c0 61.838-50.303 112.162-112.167 112.162h-74.934zM763.629-30.297h-74.939c-83.111 0-150.732 67.646-150.732 150.761v74.934c0 83.116 67.621 150.737 150.732 150.737h74.939c83.111 0 150.732-67.621 150.732-150.737v-74.934c-0-83.113-67.621-150.761-150.732-150.761v0 0zM688.69 314.449c-65.632 0-119.050-53.394-119.050-119.050v-74.939c0-65.655 53.419-119.045 119.050-119.045h74.939c65.627 0 119.045 53.39 119.045 119.045v74.939c0 65.656-53.419 119.050-119.045 119.050h-74.939zM763.629-37.187h-74.939c-86.934 0-157.621 70.718-157.621 157.647v74.939c0 86.904 70.687 157.621 157.621 157.621h74.939c86.904 0 157.616-70.717 157.616-157.621v-74.939c0-86.928-70.712-157.647-157.616-157.647v0zM688.69 339.249c-79.348 0-143.849-64.525-143.849-143.85v-74.934c0-79.324 64.5-143.877 143.849-143.877h74.939c79.319 0 143.849 64.555 143.849 143.877v74.934c0 79.325-64.53 143.85-143.849 143.85h-74.939zM763.629-5.473h-74.939c-69.45 0-125.934 56.488-125.934 125.933v74.939c0 69.45 56.485 125.934 125.934 125.934h74.939c69.45 0 125.934-56.485 125.934-125.934v-74.939c0-69.445-56.484-125.933-125.934-125.933v0zM688.69 307.561c-61.864 0-112.162-50.323-112.162-112.162v-74.939c0-61.833 50.298-112.162 112.162-112.162h74.939c61.864 0 112.162 50.329 112.162 112.162v74.939c0 61.838-50.298 112.162-112.162 112.162h-74.939zM322.74-37.187h-74.939c-86.934 0-157.621 70.718-157.621 157.647v74.939c0 86.904 70.687 157.621 157.621 157.621h74.939c86.904 0 157.616-70.717 157.616-157.621v-74.939c0-86.928-70.712-157.647-157.616-157.647v0zM247.801 339.249c-79.348 0-143.849-64.525-143.849-143.85v-74.934c0-79.324 64.5-143.877 143.849-143.877h74.939c79.319 0 143.849 64.555 143.849 143.877v74.934c0 79.325-64.53 143.85-143.849 143.85h-74.939zM322.74-5.473h-74.939c-69.45 0-125.934 56.488-125.934 125.933v74.939c0 69.45 56.485 125.934 125.934 125.934h74.939c69.45 0 125.934-56.485 125.934-125.934v-74.939c0-69.445-56.484-125.933-125.934-125.933v0zM247.801 307.561c-61.864 0-112.162-50.323-112.162-112.162v-74.939c0-61.833 50.298-112.162 112.162-112.162h74.939c61.864 0 112.162 50.329 112.162 112.162v74.939c0 61.838-50.298 112.162-112.162 112.162h-74.939zM319.816-30.297h-74.934c-83.116 0-150.737 67.646-150.737 150.761v74.934c0 83.116 67.621 150.737 150.737 150.737h74.934c83.116 0 150.737-67.621 150.737-150.737v-74.934c-0-83.113-67.621-150.761-150.737-150.761v0 0zM244.881 314.449c-65.632 0-119.050-53.394-119.050-119.050v-74.939c0-65.655 53.419-119.045 119.050-119.045h74.934c65.632 0 119.050 53.39 119.050 119.045v74.939c0 65.656-53.419 119.050-119.050 119.050h-74.934zM244.881 314.449z"  horiz-adv-x="1024" />

    
    <glyph glyph-name="l-heart-01" unicode="&#58912;" d="M1018.744 519.275c-2.106 165.997-128.34 301.071-281.326 301.071l-5.402-0.041c-89.035-1.211-170.063-44.082-222.4-116.226-53.609 69.936-134.806 110.805-225.216 110.805h-0.043c-71.25-0.293-138.997-29.401-190.666-81.968-57.3-58.237-89.535-140.746-88.431-226.361 0.459-32.215 5.483-63.494 14.556-91.081 17.703-77.837 119.060-187.89 309.956-336.519 51.168-39.576 128.819-93.541 161.972-116.604 7.592-5.252 12.721-8.799 14.41-10.049 0.937-0.75 1.98-1.438 3.043-2.043 3.19-1.752 6.693-2.605 10.196-2.605 3.963 0 7.884 1.084 11.348 3.295 43.618 27.711 102.546 72.105 175.046 131.928 183.805 150.547 284.997 266.604 300.26 343.045 8.82 29.859 13.073 61.262 12.697 93.353zM965.091 436.078c-9.443-47.061-66.765-140.894-286.102-320.589-63.847-52.629-118.477-94.27-159.137-121.23-1.251 0.875-2.564 1.793-3.961 2.773-32.925 22.875-109.992 76.42-160.225 115.287-224.588 174.857-284.202 266.458-295.17 314.353-8.257 25.397-12.636 52.483-13.010 80.445-0.94 74.398 26.856 145.918 76.294 196.191 43.767 44.498 100.838 69.122 163.683 69.372 83.552 0 160.034-43.995 204.571-117.704 3.838-6.339 10.696-10.196 18.078-10.196 0.063 0 0.146 0 0.271 0 7.465 0.105 14.367 4.171 18.079 10.676 43.059 75.65 119.334 121.479 204.282 122.606l4.672 0.083c130.027 0 237.288-116.393 239.103-259.392 0.333-27.857-3.338-55.069-11.428-82.675zM734.204 685.562c-11.678 0-21.081-9.425-21.081-21.1 0-11.678 9.487-21.123 21.164-21.123 59.468 0 106.678-55.466 107.552-126.339 0.207-14.011-1.667-27.857-5.587-41.369l-3.171-12.845c-2.377-11.404 4.963-22.601 16.347-24.979 1.482-0.312 2.921-0.459 4.358-0.459 9.78 0 18.559 6.841 20.622 16.806l2.438 9.782c5.067 17.411 7.486 35.488 7.216 53.629-1.147 94.205-66.974 167.997-149.858 167.997z"  horiz-adv-x="1024" />

    
    <glyph glyph-name="l-home" unicode="&#58913;" d="M791.792-70.485h-559.585c-70.127 0-127.183 58.171-127.183 129.682v233.414h-12.717c-49.090 0-89.025 40.717-89.025 90.773 0 24.974 9.843 48.288 27.753 65.668l401.121 355.884c20.273 20.772 48.965 32.883 79.485 32.883 30.525 0 59.217-12.116 80.787-34.106l401.555-355.722c17.778-18.539 26.733-40.979 26.733-64.605 0-50.025-39.94-90.768-89.030-90.768h-12.712v-233.419c-0.001-71.511-57.056-129.683-127.183-129.683v0 0zM511.642 783.884c-16.94 0-30.767-4.651-42.752-16.838l-399.485-356.353c-6.864-6.692-11.117-16.677-11.117-27.309 0-21.455 17.121-34.768 38.157-34.768h63.59v-289.42c0-42.899 30.097-73.671 72.173-73.671h559.585c42.076 0 72.166 30.773 72.166 73.671l0 289.421h61.52c21.040 0 38.157 13.313 38.157 34.768 0 10.085-3.818 19.658-10.808 26.999l-397.141 355.415c-13.273 13.435-27.106 18.085-44.045 18.085v0 0zM511.642 783.884z"  horiz-adv-x="1024" />

    
    <glyph glyph-name="l-jia" unicode="&#58914;" d="M512 886.636c-277.163 0-502.659-225.494-502.659-502.635 0-277.163 225.496-502.637 502.659-502.637s502.659 225.474 502.659 502.637c-0.001 277.139-225.496 502.635-502.659 502.635zM512-52.405c-240.627 0-436.405 195.757-436.405 436.406 0 240.65 195.779 436.404 436.405 436.404 240.65 0 436.404-195.754 436.404-436.404 0-240.649-195.754-436.406-436.404-436.406zM747.5 417.104h-202.408v202.408c0 18.28-14.8 33.104-33.104 33.104-18.281 0-33.104-14.823-33.104-33.104v-202.408l-202.407-0c-18.281 0-33.104-14.822-33.104-33.104 0-18.28 14.822-33.128 33.104-33.128h202.407v-202.384c0-18.28 14.823-33.104 33.104-33.104 18.304 0 33.104 14.824 33.104 33.104v202.384h202.408c18.303 0 33.127 14.848 33.127 33.128 0 18.281-14.824 33.104-33.127 33.104z"  horiz-adv-x="1024" />

    
    <glyph glyph-name="l-location" unicode="&#58915;" d="M507.531 651.768c-88.173 0-159.636-71.463-159.636-159.636s71.463-159.636 159.636-159.636 159.636 71.463 159.636 159.636-71.463 159.636-159.636 159.636zM507.531 372.405c-66.13 0-119.727 53.597-119.727 119.727s53.597 119.727 119.727 119.727 119.727-53.597 119.727-119.727-53.596-119.727-119.727-119.727zM510.852 824.709c-184.836 0-335.227-150.391-335.227-335.235 0-178.655 304.032-507.075 316.971-522.337l18.256-21.514 18.256 21.514c12.939 15.263 316.979 343.683 316.979 522.337-0 184.844-150.391 335.235-335.235 335.235zM510.773 20.14c-94.611 115.379-287.257 344.275-287.257 469.334 0 158.435 128.909 287.344 287.336 287.344 158.435 0 287.344-128.909 287.344-287.344 0-137.951-221.635-388.519-287.423-469.334z"  horiz-adv-x="1024" />

    
    <glyph glyph-name="l-me" unicode="&#58916;" d="M925.886-28.58c-7.732 115.455-64.787 222.874-156.535 294.722l-5.516 3.809-0.050-0.076c-5.217 3.192-11.166 4.899-17.288 4.899-21.035 0-33.59-10.142-33.59-27.131 0-9.895 4.576-19.192 12.257-25.5l-0.085-0.146 4.868-3.491c76.945-55.005 120.263-138.429 128.749-247.999l0.091-1.192c-0.076-0.924-0.122-1.849-0.122-2.788 0-18.515 15.006-33.531 33.526-33.531 17.894 0 32.509 14.021 33.47 31.677h0.666l-0.44 6.748zM817.912 532.945c0 166.677-137.228 302.287-305.92 302.287-168.691-0-305.924-135.61-305.924-302.287 0-89.803 39.707-173.576 109.308-231.328-124.94-66.683-207.869-193.884-217.257-334.319l-0.384-5.853c-0.010-0.122-0.021-0.242-0.026-0.363l-0.035-0.53h0.021c-0.005-0.288-0.021-0.571-0.021-0.859 0-15.697 12.728-28.425 28.424-28.425 15.697 0 28.425 12.728 28.425 28.425 0 0.287-0.010 0.57-0.021 0.859h0.591l0.445 5.832c10.303 133.46 94.889 250.324 215.798 298.48 36.096-16.768 91.202-34.228 140.632-34.228 45.793 0 90.262 10.091 132.605 30.222l31.015 18.005 25.328 16.622c74.343 57.873 116.996 144.438 116.996 237.459v0zM511.987 291.5c-134.793 0-244.444 108.335-244.444 241.47 0 133.116 109.651 241.42 244.444 241.42 134.809 0 244.475-108.304 244.475-241.42 0-133.136-109.666-241.47-244.475-241.47v0zM511.987 291.5z"  horiz-adv-x="1024" />

    
    <glyph glyph-name="l-news" unicode="&#58917;" d="M515.998 36.388h-76.534l-210.458-114.804-0 210.454c-104.914 73.648-172.206 179.344-172.206 306.166 0 221.898 205.598 401.8 459.2 401.8 253.606 0 459.204-179.9 459.204-401.8 0.014-221.938-205.58-401.816-459.206-401.816v0 0zM515.998 786.62c-221.898 0-405.834-158.202-405.834-348.416 0-116.718 70.634-224.71 174.246-286.994v-131.566l155.032 74.144 76.538-2c221.898 0 405.838 156.202 405.838 346.416 0.018 190.232-183.916 348.416-405.82 348.416v0 0zM745.63 380.804c-31.724 0-57.422 25.694-57.422 57.418s25.698 57.422 57.422 57.422c31.686 0 57.384-25.698 57.384-57.422s-25.698-57.418-57.384-57.418v0 0zM515.998 380.804c-31.724 0-57.418 25.694-57.418 57.418s25.694 57.422 57.418 57.422 57.422-25.698 57.422-57.422-25.698-57.418-57.422-57.418v0 0zM286.392 380.804c-31.69 0-57.386 25.694-57.386 57.4 0 31.708 25.698 57.422 57.386 57.422 31.724 0 57.418-25.698 57.418-57.422 0-31.722-25.716-57.4-57.418-57.4v0 0z"  horiz-adv-x="1024" />

    
    <glyph glyph-name="l-reduce" unicode="&#58918;" d="M511.947-117.548c-276.537 0-501.495 224.983-501.495 501.545 0 276.565 224.958 501.551 501.495 501.551 276.592 0 501.601-224.986 501.601-501.551 0.001-276.561-225.009-501.545-501.601-501.545v0zM511.947 832.75c-247.419 0-448.699-201.304-448.699-448.753 0-247.446 201.28-448.755 448.699-448.755 247.475 0 448.811 201.31 448.811 448.755 0.001 247.449-201.336 448.753-448.811 448.753v0zM261.303 420.059h501.395v-72.115l-501.395-0v72.115z"  horiz-adv-x="1024" />

    
    <glyph glyph-name="l-square" unicode="&#58923;" d="M895.468-114.508h-766.936c-63.426 0-115.040 51.615-115.040 115.040l-0 766.936c0 63.426 51.614 115.040 115.040 115.040h766.936c63.425 0 115.040-51.614 115.040-115.040v-766.936c0-63.425-51.615-115.040-115.040-115.040zM128.532 805.814c-21.128 0-38.347-17.218-38.347-38.347v-766.936c0-21.167 17.218-38.347 38.347-38.347h766.936c21.167 0 38.347 17.18 38.347 38.347v766.937c0 21.128-17.18 38.347-38.347 38.347h-766.936z"  horiz-adv-x="1024" />

    
    <glyph glyph-name="l-star" unicode="&#58924;" d="M511.968 818.725c10.698 0 20.411-5.702 24.733-14.527l114.571-232.583c6.613-13.433 19.63-22.804 34.678-24.992l263.56-38.346c9.919-1.431 18.381-8.070 21.478-16.791 2.969-8.462 0.702-17.743-5.988-24.251l-193.116-188.61c-10.542-10.309-15.308-24.939-12.858-39.309l44.776-261.582c1.562-9.113-2.551-18.172-10.491-23.533-4.815-3.23-10.438-4.896-16.271-4.896-4.738 0-9.423 1.146-13.458 3.229l-229.772 121.054c-6.795 3.541-14.319 5.363-21.842 5.363-7.498 0-14.994-1.824-21.815-5.363l-229.509-120.951c-4.192-2.186-8.955-3.332-13.746-3.332-5.727 0-11.454 1.719-15.958 4.738-8.2 5.518-12.34 14.631-10.752 23.74l44.777 261.531c2.448 14.371-2.342 29.002-12.886 39.309l-193.141 188.677c-6.638 6.47-8.903 15.725-5.961 24.095 3.099 8.813 11.559 15.452 21.555 16.884l263.483 38.345c15.125 2.188 28.116 11.56 34.729 24.993l114.491 232.528c4.374 8.864 14.112 14.58 24.733 14.58M511.968 863.735c-28.323 0-54.097-15.58-66.176-40l-114.546-232.582-263.483-38.334c-27.074-3.892-49.594-22.049-58.289-46.718-8.695-24.795-2.135-52.105 17-70.717l193.089-188.624-44.777-261.531c-4.556-26.396 7.106-52.795 29.99-68.258 12.601-8.383 27.334-12.705 42.122-12.705 12.132 0 24.341 2.916 35.405 8.643l229.691 121.001 229.743-121.002c11.038-5.727 23.222-8.643 35.328-8.643 14.813 0 29.546 4.322 42.147 12.705 22.883 15.463 34.52 41.863 29.992 68.26l-44.777 261.53 193.114 188.625c19.109 18.627 25.692 45.924 16.973 70.718-8.72 24.668-31.239 42.825-58.314 46.717l-263.482 38.333-114.549 232.582c-11.999 24.419-37.826 40-66.201 40v0z"  horiz-adv-x="1024" />

    
    <glyph glyph-name="orc" unicode="&#58926;" d="M320 832h-256v-256h256v256zM384 896v0-384h-384v384h384zM128 768h128v-128h-128zM960 832h-256v-256h256v256zM1024 896v0-384h-384v384h384zM768 768h128v-128h-128zM320 192h-256v-256h256v256zM384 256v0-384h-384v384h384zM128 128h128v-128h-128zM448 896h64v-64h-64zM512 832h64v-64h-64zM448 768h64v-64h-64zM512 704h64v-64h-64zM448 640h64v-64h-64zM512 576h64v-64h-64zM448 512h64v-64h-64zM448 384h64v-64h-64zM512 320h64v-64h-64zM448 256h64v-64h-64zM512 192h64v-64h-64zM448 128h64v-64h-64zM512 64h64v-64h-64zM448 0h64v-64h-64zM512-64h64v-64h-64zM960 384h64v-64h-64zM64 384h64v-64h-64zM128 448h64v-64h-64zM0 448h64v-64h-64zM256 448h64v-64h-64zM320 384h64v-64h-64zM384 448h64v-64h-64zM576 384h64v-64h-64zM640 448h64v-64h-64zM704 384h64v-64h-64zM768 448h64v-64h-64zM832 384h64v-64h-64zM896 448h64v-64h-64zM960 256h64v-64h-64zM576 256h64v-64h-64zM640 320h64v-64h-64zM704 256h64v-64h-64zM832 256h64v-64h-64zM896 320h64v-64h-64zM960 128h64v-64h-64zM576 128h64v-64h-64zM640 192h64v-64h-64zM768 192h64v-64h-64zM832 128h64v-64h-64zM896 192h64v-64h-64zM960 0h64v-64h-64zM640 64h64v-64h-64zM704 0h64v-64h-64zM768 64h64v-64h-64zM832 0h64v-64h-64zM640-64h64v-64h-64zM768-64h64v-64h-64zM896-64h64v-64h-64z"  horiz-adv-x="1024" />

    
    <glyph glyph-name="purse" unicode="&#58928;" d="M321.525 836.85l7.319-9.258c0.465-0.529 0.792-1.131 1.292-1.619l67.599-85.479h228.644l67.726 85.626c0.176 0.188 0.297 0.411 0.479 0.6l8.006 10.129-1.363 2.784c0.594 2.315 1.413 4.552 1.413 7.080 0 12.223-7.561 22.576-18.176 26.833l-0.926 1.844c0 0-90.037 19.609-171.48 19.268-77.822-0.318-171.48-19.268-171.48-19.268l-0.904-1.825c-10.677-4.216-18.311-14.587-18.311-26.856 0-2.557 0.833-4.871 1.457-7.244l-1.295-2.615zM627.836 682.968h-231.672c-181.881-63.963-331.917-266.713-331.917-460.996 0-234.521 132.314-348.633 447.751-348.633 315.439 0 447.755 114.111 447.755 348.633 0 194.281-150.024 397.027-331.917 460.996zM636.092 220.314v-0.131c20.932-0.134 37.863-17.312 37.863-38.521 0-21.189-16.932-38.371-37.863-38.507l-76.954-0.036v-38.806h-0.441c0.594-3.010 0.935-6.148 0.935-9.369 0-26.61-21.319-48.176-47.631-48.176-26.306 0-47.633 21.565-47.633 48.176 0 3.221 0.344 6.359 0.937 9.369h-0.786l0 38.807-76.169 0.036c-0.064 0-0.128-0.036-0.196-0.036-21.043 0-38.108 17.276-38.108 38.543 0 21.299 17.064 38.54 38.108 38.54h0.196v0.111h76.169v38.389l-76.169 0.076c-0.064 0-0.128-0.034-0.196-0.034-21.043 0-38.108 17.271-38.108 38.534 0 21.307 17.064 38.541 38.108 38.541h0.196v0.077h69.491c0.623 2.445 1.654 4.742 3.254 6.809l-85.495 86.455c-10.574 10.689-7.145 31.523 7.68 46.522 14.812 14.974 35.388 18.46 45.967 7.772l83.597-84.555 77.396 83.441c12.071 13.283 36.473 10.087 51.401-5.158 14.84-15.164 22.312-29.001 7.626-45.731l-90.004-93.055c-0.073-0.863 0.177-1.636 0.025-2.502h76.804v-0.093c20.932-0.13 37.863-17.313 37.863-38.524 0-21.188-16.932-38.388-37.863-38.5v-0.076h-76.954v-38.389h76.954z"  horiz-adv-x="1024" />

    
    <glyph glyph-name="purse-02" unicode="&#58929;" d="M624.63 758.168c5 9 34.247 25.625 93.872 79.342 30.688 27.688-76.062-4.219-126.872 31.782-36 25.469-73.688 31.688-107 23.031-33.25-8.688-73.375-48.094-106.999-28.031-42.125 25.156-94.313 18.719-114.125-13.75-14.75-24.313-8.875-32.407-42.25-49.344-48.186-24.467 103-24.748 151.875-52.217-1.125 0.125-1.938 0.156-3 0.281 0 0-321.812-125.499-305.124-540.154 6.875-170.842 150.249-302.094 270.312-323.748 139.811-25.125 286.875-10.562 381.059 8.875 115.375 23.844 234.751 160.127 243.001 319.592 20.059 388-281.627 507.842-334.749 544.341zM311.631 813.229c6 2 5 12 10 15 9.812 5.875 39-2 65.998-16 26.125-13.531 73.125 16.5 98 23 25 6.531 50 13.032 71-7 22.062-21 63.188-9.156 53-18-31-27.029-48-46.061-70-55.061-27.875-3.844-37.5-4.719-88-2-28.562 48.405-178.186 47.311-139.998 60.061zM895.502 229.046c-7-136.686-109.375-253.498-208.25-273.936-80.747-16.625-206.81-29.156-326.621-7.596-102.938 18.565-225.811 131.065-231.749 277.469-14.25 355.438 277.747 478.124 277.747 478.124 156.251-19.094 180.626 9.688 183.001 8 45.375-31.22 323.123-149.374 305.872-482.061zM665.678 291.612h-128v-63h128v-62h-128v-128h-62v128h-127v62h127v63h-127v64h83.422l-59.801 104.057 48.522 26.923 73.747-130.98h22.186l73.623 134.299 49.331-32.477-57.139-101.822h83.109z"  horiz-adv-x="1024" />

    
    <glyph glyph-name="right-01" unicode="&#58933;" d="M355.425 111.752c-9.17 9.122-9.17 23.924 0 33.047l262.609 239.29-262.609 239.29c-9.17 9.123-9.17 23.925 0 33.047 9.216 9.123 24.063 9.123 33.232 0l279.412-254.696c4.889-4.889 6.982-11.312 6.656-17.688 0.326-6.377-1.769-12.847-6.656-17.688l-279.412-254.649c-9.216-9.123-24.063-9.123-33.232 0.047z"  horiz-adv-x="1024" />

    
    <glyph glyph-name="s-circle" unicode="&#58941;" d="M568.525 160.096c-0.003-0.003 0.048 0.006 0.128 0.021-0.043-0.007-0.086-0.014-0.128-0.021zM511.498 180.838c-0.002 0.006-0.004 0.015-0.007 0.021l5.699-23.472c-0.156 0.781-1.942 9.636-3.664 16.521-1.042 3.909-1.838 6.363-2.028 6.93zM568.762 160.568c-0.079-0.155-0.165-0.31-0.246-0.465 0.006 0.001 0.003-0.008 0.010-0.007 0.075 0.137 0.154 0.3 0.236 0.472zM493.449 159.398c7.832-1.046 15.732-1.75 23.693-2.085 0.124 0.173-13.656 0.836-23.693 2.085zM481.776 161.217c0.038-0.009 0.075-0.014 0.113-0.021-0.099 0.134-0.147 0.167-0.113 0.021zM481.89 161.196c-0.044 0.005-0.077 0.008-0.111 0.013 0.003-0.014 0.006-0.027 0.009-0.040 0.826-0.154 3.621-0.59 5.84-0.932-1.918 0.298-3.832 0.617-5.738 0.959zM517.204 157.311c2.515-14.022 4.412-32.739 2.042-51.838 3.191 2.376 6.42 4.886 9.624 7.516 9.297 7.628 29.373 27.384 39.646 47.115-0.187-0.018 0.093 0.394 0.522 1.092 2.148 5.104 5.802 19.446 5.802 19.446 1.915 8.252 3.448 15.843 3.357 15.823-0.186-0.034-0.367-0.068-0.554-0.105 102.729 22.626 179.85 114.635 179.85 224.39 0 126.675-102.726 229.733-228.99 229.733-126.268 0-228.992-103.058-228.992-229.733 0-119.688 91.711-218.277 208.334-228.79 0.003-0.006 0.003-0.011 0.005-0.020 0.778-1.823 3.633-11.057 3.641-11.077h0.001c0.002-0.006 0.005-0.018 0.008-0.023 0.577-1.432 1.297-4 2.027-6.93 1.091-4.081 2.448-9.755 3.664-16.521 0.006-0.032 0.016-0.074 0.016-0.078-0.002-0-0.002-0-0.003-0zM507.118 262.888c-21.942 5.7-41.76 17.438-58.908 34.886-13.363 13.597-25.097 30.659-34.881 50.713-16.415 33.651-21.733 64.172-21.952 65.454l0.042 0.008-0.022 0.088c-1.062 4.279 1.448 8.588 5.605 9.629l10.351 2.587c4.158 1.040 8.39-1.584 9.452-5.865l0.496-1.991 0.092 0.016c0.048-0.281 5.039-28.573 19.929-58.865 19.132-38.929 44.842-62.826 76.413-71.025 4.949-1.286 10.115-2.193 15.365-2.699 2.218 0.276 13.419 0.614 24.443 4.467 30.167 10.545 78.203 41.555 83.218 125.042-0.012 0.427 0.021 0.86 0.080 1.296 0.005 0.084 0.011 0.165 0.015 0.249h0.017c0.004 0.021 0.004 0.044 0.008 0.065l0.511 2.948c0.752 4.344 4.781 7.27 9.004 6.537l10.511-1.831c4.203-0.731 7.006-4.812 6.292-9.132l0.015-0.001c-1.475-27.684-7.548-52.563-18.053-73.95-8.232-16.761-19.226-31.475-32.703-43.807 0.002 0 0.015 0.004 0.012 0.002-41.572-39.094-80.517-38.219-80.517-38.219-0.923-0.101-1.739-0.162-2.429-0.188-0.203-0.009-0.407-0.014-0.606-0.014-0.815 0-1.595 0.065-2.338 0.179-6.63 0.636-13.173 1.788-19.462 3.421zM511.49 180.86v0zM493.449 159.398c-1.921 0.257-3.837 0.532-5.749 0.828 1.245-0.191 2.301-0.351 2.703-0.412 0.958-0.146 1.981-0.284 3.046-0.416zM572.56 171.332c-0.713-2.725-1.414-5.211-2.051-7.143 0.323 0.718 1.181 3.821 2.051 7.143zM606.352 168.832c-1.331-0.414-35.417-8.268-37.698-8.715 12.776 1.962 25.359 4.876 37.698 8.715zM570.509 164.189c-0.393-0.878-0.818-1.757-1.257-2.639 0.424 0.711 0.922 1.618 1.257 2.639zM574.84 180.641c-0.679-2.925-1.404-5.927-2.126-8.706 1.073 4.127 2.113 8.392 2.126 8.706zM875.909 830.71h-694.817c-63.894 0-115.802-52.078-115.802-116.178v-697.069c0-64.214 51.908-116.176 115.802-116.176h694.817c64.009 0 115.803 51.961 115.803 116.176v697.070c-0.002 64.102-51.794 116.177-115.803 116.177zM770.668 318.108c-13.24-31.401-32.188-59.599-56.319-83.808-24.132-24.212-52.239-43.222-83.537-56.505-8.034-3.408-24.46-8.964-24.46-8.964-4.737-28.483-24.363-56.728-58.519-84.114-14.365-11.521-28.499-20.533-37.826-26.066-15.672-9.292-20.583-10.843-21.408-11.059-24.676-0.996-16.883 27.772-16.883 27.772 21.517 24.001 14.463 67.185 10.070 85.804-0.297 0.056-0.337 0.073-0.010 0.039 0 0.004-0.001 0.007-0.001 0.009-19.035 3.423-37.618 8.955-55.583 16.579-31.3 13.283-59.405 32.292-83.538 56.504-24.133 24.208-43.082 52.408-56.319 83.808-13.711 32.52-20.662 67.054-20.662 102.642 0 35.589 6.951 70.125 20.662 102.643 13.239 31.402 32.187 59.599 56.319 83.809 24.131 24.209 52.238 43.219 83.538 56.5 32.415 13.755 66.835 20.729 102.309 20.729 35.475 0 69.895-6.975 102.31-20.729 31.3-13.281 59.404-32.291 83.537-56.5 24.133-24.21 43.083-52.407 56.322-83.809 13.708-32.519 20.658-67.054 20.658-102.643 0.001-35.589-6.949-70.122-20.66-102.641zM517.19 157.388c0.001-0.003-0.017-0.030-0.048-0.074 0.021-0.001 0.042-0.003 0.062-0.003-0.006 0.025-0.010 0.051-0.014 0.077zM487.627 160.237c0.024-0.003 0.047-0.007 0.072-0.012-0.024 0.005-0.047 0.009-0.072 0.012z"  horiz-adv-x="1024" />

    
    <glyph glyph-name="s-heart-01" unicode="&#58949;" d="M1009.701 426.233c-15.375-77.008-117.316-193.924-302.482-345.584-73.035-60.268-132.4-104.988-176.342-132.902-3.489-2.229-7.438-3.32-11.432-3.32-3.526 0-7.058 0.859-10.271 2.623-1.071 0.611-2.123 1.303-3.066 2.059-1.703 1.26-6.868 4.834-14.516 10.125-33.398 23.23-111.625 77.596-163.17 117.465-192.306 149.727-294.414 260.594-312.248 339.009-9.14 27.791-14.202 59.3-14.664 91.754-1.113 86.249 31.363 169.369 89.087 228.038 52.050 52.955 120.299 82.279 192.076 82.573h0.043c91.080 0 172.875-41.172 226.882-111.624 52.725 72.678 134.352 115.866 224.048 117.085l5.44 0.041c154.119 0 281.287-136.073 283.408-303.299 0.379-32.33-3.908-63.964-12.793-94.043zM877.089 454.671l2.458 9.854c5.104 17.539 7.542 35.751 7.267 54.026-1.155 94.904-67.468 169.241-150.966 169.241-11.765 0-21.236-9.494-21.236-21.256 0-11.765 9.557-21.279 21.32-21.279 59.905 0 107.466-55.875 108.348-127.274 0.209-14.115-1.68-28.063-5.63-41.675l-3.193-12.94c-2.394-11.488 4.999-22.769 16.468-25.165 1.493-0.314 2.942-0.463 4.39-0.463 9.854 0.001 18.695 6.893 20.774 16.931z"  horiz-adv-x="1024" />

    
    <glyph glyph-name="s-location" unicode="&#58953;" d="M512 832c-194.080 0-352-157.92-352-352 0-187.36 315.424-520.032 328.832-534.080 6.048-6.368 14.432-9.92 23.168-9.92 0.224 0 0.48 0 0.704 0 8.992 0 17.472 4.192 23.392 10.944l109.216 125.12c145.12 177.76 218.688 315.008 218.688 407.936 0 194.080-157.92 352-352 352zM512 320c-88.384 0-160 71.616-160 160s71.616 160 160 160 160-71.616 160-160-71.616-160-160-160z"  horiz-adv-x="1024" />

    
    <glyph glyph-name="s-selected" unicode="&#58962;" d="M512 890.655c-279.842 0-506.655-226.813-506.655-506.655s226.813-506.655 506.655-506.655c279.841 0 506.654 226.813 506.654 506.655 0 279.842-226.812 506.655-506.654 506.655zM858.607 519.896l-398.062-398.060c-10.977-10.98-28.823-10.98-39.8 0l-199.057 199.057c-10.978 10.977-10.978 28.824 0 39.801 10.977 10.979 28.822 10.979 39.8 0l179.131-179.129 378.134 378.132c10.977 10.978 28.822 10.978 39.801 0 11.030-10.977 11.030-28.767 0.053-39.801z"  horiz-adv-x="1024" />

    
    <glyph glyph-name="s-square" unicode="&#58964;" d="M897.549 885.213h-771.098c-63.77 0-115.665-51.895-115.665-115.665v-771.098c0-63.77 51.895-115.664 115.665-115.664h771.098c63.77 0 115.664 51.895 115.664 115.664v771.099c0 63.77-51.895 115.664-115.664 115.664zM771.32 472.638l-308.709-312.064c-0.077-0.076-0.23-0.115-0.308-0.23-0.115-0.078-0.115-0.232-0.231-0.309-2.468-2.391-5.513-3.855-8.366-5.475-1.427-0.809-2.583-2.043-4.087-2.623-4.626-1.85-9.523-2.814-14.42-2.814-4.934 0-9.908 0.965-14.573 2.893-1.542 0.656-2.776 1.967-4.242 2.775-2.852 1.619-5.822 3.047-8.289 5.475-0.077 0.078-0.115 0.232-0.193 0.309-0.077 0.115-0.23 0.115-0.308 0.23l-151.829 156.033c-14.844 15.268-14.497 39.672 0.77 54.516 15.269 14.805 39.635 14.536 54.517-0.77l124.417-127.85 281.064 284.111c14.959 15.152 39.404 15.269 54.518 0.31 15.074-14.998 15.228-39.403 0.269-54.517z"  horiz-adv-x="1024" />

    
    <glyph glyph-name="s-star" unicode="&#58965;" d="M511.967 865.055c-28.401 0-54.247-15.623-66.358-40.11l-114.861-233.222-264.208-38.44c-27.148-3.901-49.73-22.109-58.448-46.846-8.72-24.863-2.142-52.248 17.047-70.912l193.62-189.144-44.9-262.25c-4.569-26.47 7.126-52.942 30.073-68.447 12.635-8.405 27.409-12.739 42.237-12.739 12.165 0 24.408 2.924 35.502 8.665l230.324 121.337 230.375-121.335c11.068-5.741 23.284-8.667 35.425-8.667 14.854 0 29.627 4.336 42.263 12.739 22.947 15.507 34.615 41.979 30.075 68.447l-44.9 262.25 193.646 189.145c19.161 18.678 25.764 46.050 17.020 70.912-8.744 24.736-31.326 42.943-58.476 46.846l-264.207 38.438-114.865 233.222c-12.034 24.487-37.931 40.111-66.384 40.111v0z"  horiz-adv-x="1024" />

    
    <glyph glyph-name="store-02" unicode="&#58979;" d="M1012.546 571.892c0 0 0-90.001 0-124.283 0-41.651-8.351-69.146-30.277-94.926v-344.467c0-69.175-59.851-125.261-131.199-125.261h-678.139c-71.349 0-129.181 56.086-129.181 125.261l-0.948 344.467c-19.359 24.129-31.348 60.582-31.348 93.946 0 17.829 0.245 49.022 0.795 62.631l-0.795 62.632 182.028 313.152h637.036l182.028-313.152M105.497 8.217c0-34.588 31.745-62.631 67.434-62.631h678.138c35.689 0 69.452 28.043 69.452 62.631v62.631h-815.024v-62.631zM105.497 133.477h815.024v190.431c-8.012-1.499-24.648-2.54-33.823-2.54-59.301 0-111.934 33.641-140.344 80.612-24.283-46.546-72.298-80.612-118.66-80.612-46.729 0-98.14 29.358-115.694 69.39-17.554-41.010-70.064-69.39-117.772-69.39-45.141 0-92.451 31.285-117.773 75.903-22.57-45.903-75.907-75.903-109.546-75.903-16.454 0-46.729-1.805-61.41 3.396l-0.002-191.287zM72.192 446.631c0-43.243 48.596-63.61 95.693-63.61 46.425 0 94.805 32.11 94.805 63.61h29.635c0-40.399 55.109-62.631 103.4-62.631 46.302 0 101.106 31.040 101.106 62.631h30.336c0-30.613 53.888-62.631 100.19-62.631 48.289 0 104.378 31.040 104.378 62.631h29.604c0-32.142 74.59-62.693 124.96-62.723 43.61-0.031 65.141 19.48 65.568 62.723v0 62.63h-879.735l0.060-62.63zM952.909 571.892h-1.040l-148.998 250.522h-581.62l-145.908-250.522h877.566z"  horiz-adv-x="1024" />

    
    <glyph glyph-name="sweep" unicode="&#58966;" d="M1097.082 359.684h-1072.705c-14.626 0-24.377 9.751-24.377 24.377 0 14.626 9.751 24.377 24.377 24.377h1072.705c14.626 0 24.377-9.751 24.377-24.377 0-14.626-9.751-24.377-24.377-24.377zM1023.951 776.553c0 41.441-31.714 73.131-73.155 73.131h-195.039v46.316h192.602c68.28 0 121.909-53.629 121.909-121.884v-195.039h-46.316v197.477zM97.508 776.553v-197.477h-51.191v195.039c0 68.255 53.629 121.884 121.884 121.884h197.477v-46.316h-195.039c-41.441 0-73.131-34.128-73.131-73.131zM97.508-3.556c0-41.441 31.69-73.131 73.131-73.131h195.039v-51.216h-197.477c-68.255 0-121.884 53.654-121.884 121.909v219.392h51.191v-216.954zM1023.951-3.556v216.954h46.316v-219.392c0-68.255-53.629-121.909-121.909-121.909h-192.602v51.216h195.039c41.441 0 73.155 31.69 73.155 73.131z"  horiz-adv-x="1122" />

    
    <glyph glyph-name="wechat" unicode="&#58971;" d="M693.12 548.769c11.776 0 23.36-0.896 35.008-2.178-31.36 146.050-187.456 254.53-365.696 254.53-199.232 0-362.432-135.744-362.432-308.224 0-99.521 54.272-181.249 145.024-244.737l-36.224-108.992 126.72 63.488c45.312-8.896 81.664-18.111 126.912-18.111 11.392 0 22.656 0.514 33.792 1.344-7.040 24.258-11.2 49.602-11.2 76.031 0.064 158.336 136.001 286.849 308.096 286.849zM498.304 647.009c27.394 0 45.376-17.984 45.376-45.248 0-27.136-17.982-45.312-45.376-45.312-27.070 0-54.336 18.176-54.336 45.312 0 27.328 27.2 45.248 54.336 45.248zM244.672 556.449c-27.2 0-54.592 18.176-54.592 45.312 0 27.264 27.392 45.248 54.592 45.248 27.2 0 45.248-17.92 45.248-45.248 0-27.136-18.048-45.312-45.248-45.312zM1024 266.273c0 144.895-145.024 262.975-307.904 262.975-172.479 0-308.224-118.144-308.224-262.975 0-145.281 135.808-262.979 308.224-262.979 36.098 0 72.514 9.025 108.736 18.113l99.392-54.529-27.264 90.625c72.769 54.657 127.040 127.042 127.040 208.77zM616.128 311.648c-17.984 0-36.224 17.92-36.224 36.225 0 18.047 18.238 36.225 36.224 36.225 27.521 0 45.376-18.178 45.376-36.225 0-18.305-17.855-36.225-45.376-36.225zM815.488 311.648c-17.856 0-36.032 17.92-36.032 36.225 0 18.047 18.112 36.225 36.032 36.225 27.264 0 45.376-18.178 45.376-36.225 0-18.305-18.112-36.225-45.376-36.225z"  horiz-adv-x="1024" />

    
    <glyph glyph-name="zeng" unicode="&#58972;" d="M523.584 443.377h110.064l0 150.613h-110.064v-150.613zM575.721 570.818c1.9-5.793 6.742-13.533 14.482-23.171 15.432-28.965 26.066-49.239 31.859-60.824l-40.551-20.275c-13.53 28.964-28.963 56.933-46.342 83.995l40.552 20.275zM555.446 286.971h208.541v-57.929h-208.541v57.929zM688.682 443.377h107.166v150.613h-107.166v-150.613zM746.608 570.819l37.653-20.275c-5.793-9.684-16.428-28.963-31.86-57.928-9.685-13.532-15.478-22.222-17.377-26.068l-37.654 20.275c15.434 25.071 31.859 53.085 49.238 83.996zM836.267 896h-649.432c-103.299 0-186.835-83.537-186.835-186.835v-650.33c0-103.299 83.536-186.835 186.835-186.835h650.329c102.4 0 186.836 83.536 186.836 186.835v650.33c-0.898 103.298-84.435 186.835-187.733 186.835zM202.085 698.259h228.815v-448.941h-49.24l0 379.428h-130.337v-382.326h-49.238v451.839zM419.314 63.947c-17.378 21.271-49.239 56.025-95.581 104.27-1.946 1.903-3.893 3.849-5.793 5.794-17.379-44.44-53.132-90.738-107.167-139.026l-40.55 55.031c50.189 36.657 82.050 73.361 95.581 110.063 15.432 36.659 23.171 96.533 23.171 179.578v196.954h55.032v-196.956c0-54.082-2.896-100.425-8.689-139.026 30.865-28.965 73.36-69.515 127.442-121.648l-43.446-55.034zM827.707 37.878h-63.721v34.758h-208.54v-34.758h-63.722l-0 304.124h335.982v-304.124zM853.776 388.344h-385.223v260.678h95.582c-15.479 23.17-29.961 47.293-43.444 72.409l63.721 11.586c1.899-3.893 6.744-11.586 14.479-23.171 17.379-27.063 29.916-47.338 37.654-60.824h52.137c9.638 15.433 25.070 41.5 46.343 78.203 1.899 1.901 2.896 3.847 2.896 5.793l69.512-14.483c-15.477-25.117-30.907-48.288-46.342-69.513h92.687v-260.678zM555.446 179.803h208.541v-57.928h-208.541v57.928z"  horiz-adv-x="1024" />

    
    <glyph glyph-name="zhe" unicode="&#58973;" d="M873.813 892.099h-723.627c-80.75 0-146.286-65.536-146.286-146.286v-723.627c0-80.798 65.536-146.286 146.286-146.286h723.627c80.847 0 146.286 65.487 146.286 146.286l0 723.627c0 80.847-65.438 146.286-146.286 146.286zM355.133 135.802c0-63.244-7.070-74.947-131.121-96.744-0.78 31.988-4.681 49.152-28.087 83.48 89.722-7.022 96.012-3.072 96.012 22.626v167.010c-41.35-14.824-81.091-30.427-112.396-46.031-3.072 23.406-10.191 55.442-17.993 79.677 49.298 8.582 91.331 17.944 130.389 28.867l0 135.753c-50.81-0.829-89.819-2.341-118.686-6.242v69.486c28.867-3.901 67.925-6.242 118.686-7.022 0 74.167-3.852 155.307-8.582 177.883 28.087-4.681 52.273-6.242 74.167-5.413 25.698 0.78 29.598-7.022 11.605-21.065-10.825-8.582-13.946-14.824-13.946-28.136v-123.27c42.862 0.78 77.239 3.121 102.985 7.022v-69.486c-25.746 3.901-60.123 5.413-102.985 5.413v-116.297c31.256 10.142 61.635 21.845 94.452 35.889-5.413-21.065-5.413-46.031 0-65.536-27.307-7.802-60.075-17.944-94.452-29.647l-0.049-198.217zM862.501 431.64c-26.575 4.681-66.365 7.802-109.324 8.582v-280.186c0-46.763 2.389-79.628 5.51-124.099h-74.947c3.072 44.52 4.681 77.336 4.681 124.099v280.917h-112.396c-3.121-192.024-35.889-313.783-114.786-417.548-20.285 18.773-45.3 31.988-75.776 39.058 75.776 78.068 119.418 149.065 125.708 382.391 2.292 95.232-1.56 188.075-6.29 227.962 71.046-3.901 232.643 30.427 283.404 62.415 8.582-21.894 31.939-59.343 42.959-69.437 11.703-10.191 10.094-13.263-5.364-14.092-14.092-0.78-29.013-2.341-105.423-13.214-58.563-8.582-107.715-15.604-144.384-19.505v-119.418h139.703c74.167 0 112.396 3.121 146.773 9.362l0-77.288z"  horiz-adv-x="1024" />

    
    <glyph glyph-name="left" unicode="&#58974;" d="M782.613934-118.118752c-13.235997-13.174997-34.590992-13.174997-47.827988 0l-477.649883 477.842883c-13.234997 13.170997-13.234997 34.462992 0 47.698988l477.650883 477.649883c13.235997 13.236997 34.590992 13.236997 47.827988 0 13.110997-13.170997 13.110997-34.586992 0-47.762988l-453.860889-453.739889 453.860889-453.922889C795.725931-83.526761 795.725931-104.818756 782.613934-118.118752z"  horiz-adv-x="1024" />

    
    <glyph glyph-name="right" unicode="&#58975;" d="M257.042739-70.352216l453.861208 453.923148L257.042739 837.311257c-13.112208 13.175147-13.112208 34.591252 0 47.762403 13.237086 13.237086 34.591252 13.237086 47.828338 0l477.650998-477.649999c13.235088-13.237086 13.235088-34.528314 0-47.699464l-477.650998-477.842811c-13.237086-13.175147-34.591252-13.175147-47.828338 0C243.930532-104.81859 243.930532-83.526364 257.042739-70.352216z"  horiz-adv-x="1024" />

    
    <glyph glyph-name="up" unicode="&#58976;" d="M18.21 120.715c-13.176 13.236-13.176 34.591 0 47.828l477.843 477.651c13.171 13.234 34.462 13.234 47.699 0l477.65-477.651c13.236-13.237 13.236-34.592 0-47.828-13.172-13.112-34.588-13.112-47.764 0L519.899 574.576 65.976 120.715C52.802 107.603 31.51 107.603 18.21 120.715z"  horiz-adv-x="1032" />

    
    <glyph glyph-name="iconfonthui" unicode="&#58977;" d="M538.693 440.939l192.09 0 0-54.553-192.09 0 0 54.553ZM313.565 531.604l180.564 0 0-53.018-180.564 0 0 53.018ZM313.565 440.938l180.564 0 0-54.553-180.564 0 0 54.553ZM538.693 531.604l192.09 0 0-53.018-192.09 0 0 53.018ZM833.12 891.032 189.99 891.032C87.694 891.032 4.968 808.306 4.968 706.01l0-644.02c0-102.296 82.727-185.022 185.022-185.022l644.02 0c101.406 0 185.022 82.727 185.022 185.022L1019.032 706.01C1018.143 808.306 935.416 891.032 833.12 891.032zM220.595 39.088l-38.418 30.734c43.027 41.49 64.542 73.761 92.203 137.535l40.723-22.282C285.138 118.998 261.317 82.115 220.595 39.088zM538.693 33.708c-85.287 0-125.242 3.074-145.219 11.526-13.062 6.147-19.208 19.207-19.208 41.491l0 64.543c0 26.124-0.769 41.489-4.611 60.698l55.322 0c-3.073-18.44-3.841-29.964-3.841-55.32l0-60.701c0-16.903 13.062-19.209 116.021-19.209 68.386 0 99.885 3.074 112.18 11.527 11.526 6.915 15.369 20.746 17.672 63.006 14.598-9.222 28.431-15.369 48.408-19.209C702.353 39.088 692.365 33.708 538.693 33.708zM465.701 212.735l33.04 25.357c41.491-31.504 63.774-49.945 99.886-86.824l-35.344-29.198C529.476 161.257 509.496 179.696 465.701 212.735zM816.069 46.002c-37.648 59.933-68.384 99.117-112.178 143.683l37.649 23.05c48.405-47.637 79.14-84.519 113.716-138.303L816.069 46.002zM856.793 611.513c-23.051 3.074-45.334 4.609-78.373 4.609L538.693 616.122l0-46.101 153.671 0c47.638 0 66.078 0.769 86.823 4.61-2.305-23.051-3.072-35.345-3.072-79.142l0-71.457c0-44.565 0.768-56.858 3.072-79.141-19.207 3.074-43.025 3.842-85.287 3.842L538.693 348.733l0-53.786c51.48 1.539 108.337 3.842 168.271 6.916-7.684 6.916-16.136 13.831-36.881 28.429l36.113 17.674c49.944-34.578 82.215-61.469 126.778-105.266l-33.807-29.967c-22.282 24.587-28.43 30.734-53.786 54.554-112.181-8.45-228.97-13.83-479.455-22.282-23.05-0.768-39.955-1.537-57.625-3.842l-9.221 51.479c29.197-2.305 52.248-3.074 93.739-3.074 23.819 0 90.666 1.537 201.309 3.843l0 55.32L352.751 348.731c-48.406 0-67.614-0.767-87.592-3.842 2.305 22.283 3.072 36.112 3.072 79.141l0 69.152c0 44.564-0.767 58.395-3.072 81.446 18.44-3.841 39.186-4.61 85.288-4.61l143.682 0 0 46.101L266.695 616.119c-33.04 0-56.86-1.536-76.836-4.609l0 52.248c22.282-3.841 43.027-5.379 76.836-5.379l227.433 0c0 22.282-1.536 41.492-5.379 60.701l55.322 0c-3.841-19.208-4.61-36.88-5.379-60.701L778.42 658.379c36.881 0 59.163 1.538 78.373 5.379L856.793 611.513z"  horiz-adv-x="1024" />

    
    <glyph glyph-name="chat" unicode="&#58943;" d="M160.788521 134.45655M582.045821 415.30396c-19.429515 0-35.236526-15.791661-35.236526-35.204803 0-19.461237 15.805988-35.293831 35.236526-35.293831s35.239596 15.833617 35.239596 35.293831C617.285416 399.512299 601.475336 415.30396 582.045821 415.30396M895.793548 686.426891c0 27.110451-22.057365 49.163723-49.163723 49.163723L317.46591 735.590614c-27.110451 0-49.163723-22.053272-49.163723-49.163723l0-49.1627 42.627866 0L310.930053 692.962747l542.236652 0 0-347.252819-55.701626 0 0-42.627866 49.164746 0c27.106358 0 49.163723 22.057365 49.163723 49.163723L895.793548 686.426891 895.793548 686.426891zM895.793548 686.426891M442.79636 415.30396c-19.433608 0-35.241642-15.791661-35.241642-35.204803 0-19.461237 15.809057-35.293831 35.241642-35.293831 19.430538 0 35.235502 15.833617 35.235502 35.293831C478.031862 399.512299 462.226898 415.30396 442.79636 415.30396M756.541017 547.17436c0 27.110451-22.057365 49.163723-49.163723 49.163723L178.213379 596.338083c-27.110451 0-49.163723-22.053272-49.163723-49.163723l0-334.181105c0-27.106358 22.053272-49.163723 49.163723-49.163723l62.238506 0 0-130.056078L370.460892 163.829532l336.915379 0c27.106358 0 49.163723 22.057365 49.163723 49.163723L756.539994 547.17436 756.541017 547.17436zM711.188086 209.181439 351.683223 209.181439l-65.8825-65.87943 0 65.87943L174.401564 209.181439 174.401564 550.989245l536.786523 0L711.188086 209.181439 711.188086 209.181439zM711.188086 209.181439M303.540759 415.30396c-19.430538 0-35.239596-15.791661-35.239596-35.204803 0-19.461237 15.809057-35.293831 35.239596-35.293831 19.429515 0 35.239596 15.833617 35.239596 35.293831C338.779332 399.512299 322.970274 415.30396 303.540759 415.30396"  horiz-adv-x="1024" />

    
    </font>
</defs>
</svg>
